<?xml version="1.0" encoding="utf-8"?>
<!-- Generator: Adobe Illustrator 27.5.0, SVG Export Plug-In . SVG Version: 6.00 Build 0)  -->
<svg version="1.1" xmlns="http://www.w3.org/2000/svg" xmlns:xlink="http://www.w3.org/1999/xlink" x="0px" y="0px"
	 viewBox="0 0 500 500" style="enable-background:new 0 0 500 500;" xml:space="preserve">
<g id="BACKGROUND">
	<rect x="0" style="fill:#FFFFFF;" width="500" height="500"/>
</g>
<g id="OBJECT">
	<ellipse style="fill:#DEDEDE;" cx="250" cy="429.436" rx="133.138" ry="17.178"/>
	
		<ellipse transform="matrix(0.7071 -0.7071 0.7071 0.7071 -81.2227 240.8235)" style="fill:#CCE8F5;" cx="250.088" cy="218.456" rx="148.544" ry="148.544"/>
	<g>
		<g>
			<path style="fill:#F0BCA3;" d="M138.121,198.603c1.978,0.615,4.615,1.606,7.352,3.08c0.954,0.514,1.924,1.096,2.886,1.735
				l4.764-6.918c0,0,0,0-0.008-0.006c-0.195-0.172-3.436-2.954-11.745-6.568l-0.242-0.097c-2.227-0.83-4.737,0.181-5.778,2.336
				c-0.039,0.081-0.078,0.163-0.117,0.251C134.127,194.892,135.527,197.796,138.121,198.603z"/>
			<g>
				<path style="fill:#F0BCA3;" d="M195.651,215.648l-20.235,13.523l-18.251-21.339c0,0-9.506,4.227-15.932,15.032l20.428,26.628
					c1.969,2.566,4.584,4.588,7.615,5.718c0.059,0.022,0.119,0.044,0.179,0.066c4.929,1.799,10.422,1.18,14.927-1.511l25.01-14.942
					L195.651,215.648z"/>
				<g>
					<path style="fill:#F0BCA3;" d="M135.632,221.927l8.026,2.901l13.062-7.805c0,0,1.88-1.484,3.137-4.611
						c1.832-4.564,0.919-9.729-1.968-13.709c-0.936-1.294-2.141-2.591-3.662-3.678c0,0,0,0-0.008-0.006
						c-0.202-0.179-3.567-3.066-12.192-6.819l-0.251-0.1c0.012,0.042,0.025,0.091,0.045,0.132l4.464,12.173l1.255,3.422
						C147.541,203.826,136.039,210.941,135.632,221.927z"/>
				</g>
				<path style="fill:#E29781;" d="M160.215,211.399c0,0-1.221,3.48-3.143,5.835c-0.31,0.38-0.227,0.943,0.176,1.224l0,0
					c0.375,0.263,0.887,0.182,1.166-0.181c0.787-1.024,2.271-3.159,2.973-5.508L160.215,211.399z"/>
				<g>
					<path style="fill:#3B1010;" d="M175.415,229.171l-4.27,2.863c-0.342,0.229-0.804,0.141-1.038-0.197l0,0
						c-0.239-0.346-0.148-0.82,0.201-1.053l4.743-3.174L175.415,229.171z"/>
				</g>
				<path style="fill:#3B1010;" d="M142.386,224.369c0,0,1.25,0.437,3.058,0.491c0.431,0.013,0.766,0.383,0.742,0.813l0,0
					c-0.025,0.443-0.416,0.771-0.857,0.723c-0.853-0.092-2.197-0.279-3.125-0.606L142.386,224.369z"/>
				<path style="fill:#E29781;" d="M209.387,238.819l-20.725,12.382c-6.059-8.762-8.867-17.777-10.168-24.093l17.156-11.462
					L209.387,238.819z"/>
				<g>
					<g>
						<path style="fill:#3B1010;" d="M140.115,187.799c0.554,0,1.116,0.097,1.662,0.3l0.251,0.1
							c8.625,3.753,11.99,6.64,12.192,6.819c0.008,0.006,0.008,0.006,0.008,0.006c1.52,1.086,2.725,2.384,3.662,3.678
							c2.674,3.688,3.65,8.391,2.323,12.693l15.203,17.776l20.236-13.523l13.739,23.175l-25.01,14.942
							c-2.782,1.662-5.94,2.533-9.11,2.533c-1.964,0-3.932-0.335-5.817-1.023c-0.06-0.022-0.12-0.044-0.179-0.066
							c-3.031-1.13-5.646-3.152-7.615-5.718l-19.273-25.123l-6.755-2.441c0.407-10.986,11.909-18.101,11.909-18.101l-1.255-3.422
							c-2.841-1.53-5.578-2.558-7.632-3.197c-2.693-0.838-4.146-3.852-2.997-6.423c0.04-0.092,0.08-0.176,0.121-0.261
							C136.604,188.815,138.32,187.799,140.115,187.799 M140.115,185.799L140.115,185.799c-2.597,0-5.006,1.513-6.137,3.855
							c-0.055,0.113-0.105,0.22-0.155,0.336c-0.757,1.693-0.747,3.672,0.037,5.408c0.806,1.784,2.337,3.139,4.201,3.719
							c1.611,0.501,4.016,1.365,6.614,2.699l0.456,1.242c-3.247,2.381-11.138,9.137-11.496,18.795
							c-0.032,0.869,0.501,1.659,1.319,1.955l6.204,2.242l18.917,24.658c2.252,2.936,5.192,5.14,8.503,6.374l0.191,0.07
							c2.081,0.759,4.268,1.144,6.504,1.144c3.547,0,7.051-0.974,10.135-2.816l25.01-14.942c0.946-0.565,1.257-1.789,0.695-2.737
							l-13.739-23.175c-0.28-0.472-0.742-0.809-1.278-0.93c-0.146-0.033-0.295-0.05-0.443-0.05c-0.392,0-0.78,0.116-1.111,0.337
							l-18.759,12.536l-13.366-15.627c1.019-4.487-0.033-9.404-2.906-13.366c-1.164-1.607-2.525-2.979-4.045-4.078
							c-0.656-0.56-4.238-3.43-12.638-7.084c-0.018-0.008-0.036-0.016-0.055-0.023l-0.251-0.1
							C141.716,185.942,140.922,185.799,140.115,185.799L140.115,185.799z"/>
					</g>
				</g>
			</g>
			<g>
				<path style="fill:#B7A6A5;" d="M135.979,225.549l15.621-37.888c5.156-0.016,10.042-3.068,12.144-8.127
					c1.593-3.835,1.242-7.999-0.604-11.386c-0.743-1.364-2.756-1.228-3.352,0.207l-3.728,8.973l-9.708-4.033l3.726-8.968
					c0.596-1.435-0.73-2.959-2.22-2.52c-3.695,1.086-6.89,3.774-8.482,7.606c-2.103,5.062-0.82,10.679,2.809,14.343l-15.621,37.888
					c-5.156,0.016-10.042,3.068-12.144,8.127c-1.593,3.835-1.242,7.999,0.604,11.386c0.743,1.364,2.756,1.228,3.352-0.207
					l3.728-8.973l9.708,4.033l-3.726,8.968c-0.596,1.435,0.729,2.958,2.22,2.52c3.695-1.086,6.89-3.774,8.482-7.606
					C140.891,234.83,139.608,229.212,135.979,225.549z"/>
				<g>
					<g>
						<path style="fill:#3B1010;" d="M148.382,161.728c1.257,0,2.223,1.333,1.698,2.597l-3.726,8.968l9.708,4.033l3.728-8.973
							c0.316-0.761,1.031-1.157,1.744-1.157c0.631,0,1.259,0.31,1.608,0.95c1.846,3.388,2.197,7.552,0.604,11.386
							c-2.102,5.059-6.988,8.111-12.144,8.127l-15.621,37.888c3.629,3.663,4.912,9.281,2.809,14.343
							c-1.592,3.832-4.787,6.52-8.482,7.606c-0.177,0.052-0.353,0.076-0.522,0.076c-1.257,0-2.223-1.333-1.698-2.597l3.726-8.968
							l-9.708-4.033l-3.728,8.973c-0.316,0.761-1.031,1.156-1.744,1.156c-0.631,0-1.259-0.31-1.608-0.95
							c-1.846-3.388-2.197-7.552-0.604-11.386c2.102-5.059,6.989-8.111,12.144-8.127l15.621-37.888
							c-3.628-3.663-4.912-9.281-2.809-14.343c1.592-3.832,4.787-6.52,8.482-7.606C148.037,161.753,148.212,161.728,148.382,161.728
							 M148.382,159.728L148.382,159.728C148.382,159.728,148.382,159.728,148.382,159.728c-0.365,0-0.73,0.053-1.087,0.158
							c-4.435,1.303-7.994,4.495-9.765,8.758c-2.182,5.251-1.254,11.199,2.326,15.515l-14.656,35.548
							c-5.582,0.513-10.447,4.051-12.626,9.296c-1.773,4.268-1.52,9.046,0.694,13.111c0.67,1.229,1.959,1.993,3.364,1.993
							c1.578,0,2.988-0.938,3.591-2.389l2.96-7.126l6.014,2.498l-2.959,7.121c-0.498,1.198-0.365,2.558,0.356,3.639
							c0.721,1.081,1.913,1.726,3.188,1.726c0.365,0,0.73-0.053,1.086-0.158c4.435-1.303,7.994-4.495,9.765-8.758
							c2.182-5.251,1.254-11.199-2.326-15.515l14.656-35.548c5.582-0.513,10.447-4.051,12.626-9.296
							c1.773-4.268,1.52-9.047-0.695-13.111c-0.67-1.229-1.959-1.993-3.364-1.993c-1.578,0-2.988,0.938-3.591,2.389l-2.96,7.126
							l-6.014-2.498l2.959-7.122c0.498-1.198,0.365-2.558-0.356-3.639C150.849,160.374,149.657,159.728,148.382,159.728
							L148.382,159.728L148.382,159.728z"/>
					</g>
				</g>
				<path style="fill:#8F7A78;" d="M151.601,187.661c0,0-2.029-0.134-4.177-0.97c-0.418-0.162-0.888,0.051-1.046,0.47l0,0
					c-0.157,0.415,0.048,0.874,0.459,1.042c0.812,0.331,2.049,0.766,4.131,0.996L151.601,187.661z"/>
			</g>
			<g>
				<g>
					<g>
						<defs>
							<path id="SVGID_1_" d="M153.945,192.653l-6.814,10.089l-10.1-4.24c-3.831-1.789-5.169-6.712-2.563-10.041
								c0.038-0.049,0.078-0.098,0.118-0.147c2.003-2.448,5.497-3.077,8.286-1.585L153.945,192.653z"/>
						</defs>
						<clipPath id="SVGID_00000154396607308726752030000018287811924074513579_">
							<use xlink:href="#SVGID_1_"  style="overflow:visible;"/>
						</clipPath>
						<path style="clip-path:url(#SVGID_00000154396607308726752030000018287811924074513579_);fill:#F0BCA3;" d="M138.654,197.207
							c2.054,0.639,4.791,1.667,7.632,3.197c0.991,0.534,1.997,1.138,2.996,1.801l4.946-7.181c0,0,0,0-0.008-0.006
							c-0.202-0.179-3.567-3.066-12.192-6.819l-0.251-0.1c-2.312-0.862-4.918,0.188-5.998,2.425
							c-0.041,0.085-0.081,0.169-0.121,0.261C134.507,193.355,135.96,196.369,138.654,197.207z"/>
						<g style="clip-path:url(#SVGID_00000154396607308726752030000018287811924074513579_);">
							<path style="fill:#3B1010;" d="M140.114,187.799c0.554,0,1.116,0.097,1.662,0.3l0.251,0.1
								c8.625,3.753,11.99,6.64,12.192,6.819c0.008,0.006,0.008,0.006,0.008,0.006l-4.946,7.181
								c-0.999-0.663-2.005-1.268-2.996-1.801c-2.841-1.53-5.578-2.558-7.632-3.197c-2.693-0.838-4.146-3.852-2.997-6.423
								c0.04-0.092,0.08-0.176,0.121-0.261C136.604,188.815,138.32,187.799,140.114,187.799 M140.114,186.36
								c-2.383,0-4.594,1.389-5.632,3.538c-0.05,0.104-0.098,0.205-0.146,0.314c-0.695,1.553-0.685,3.364,0.033,4.954
								c0.74,1.638,2.145,2.882,3.856,3.414c1.771,0.551,4.489,1.534,7.377,3.09c0.957,0.516,1.927,1.099,2.883,1.733
								c0.245,0.162,0.521,0.24,0.794,0.24c0.458,0,0.907-0.218,1.186-0.623l4.946-7.181c0.424-0.615,0.305-1.45-0.267-1.924
								c-0.482-0.419-3.96-3.301-12.544-7.036l-0.29-0.117C141.583,186.492,140.855,186.36,140.114,186.36L140.114,186.36z"/>
						</g>
						
							<path style="clip-path:url(#SVGID_00000154396607308726752030000018287811924074513579_);fill:none;stroke:#3B1010;stroke-width:1.4385;stroke-linecap:round;stroke-linejoin:round;stroke-miterlimit:10;" d="
							M148.031,201.409"/>
					</g>
				</g>
				<g>
					<path style="fill:#3B1010;" d="M148.031,201.409c0,0-1.429,3.404,0.943,8.645c0.215,0.475-0.012,1.035-0.494,1.232l0,0
						c-0.471,0.192-1.011-0.028-1.205-0.498c-0.808-1.951-2.534-6.891-0.989-10.384L148.031,201.409z"/>
				</g>
			</g>
			<g>
				<g>
					<path style="fill:#F0BCA3;" d="M132.832,196.384l9.072,0.88c0.749,0.073,1.489,0.241,2.176,0.549
						c0.023,0.01,0.047,0.021,0.07,0.032c3.003,1.384,3.413,5.652,0.64,7.453c-0.486,0.315-1.077,0.552-1.797,0.646
						c0,0,0.122,0.03,0.323,0.105c4.299,1.594,3.331,7.941-1.238,8.32c-0.241,0.02-0.495,0.03-0.763,0.028
						c0,0,0.084,0.17,0.175,0.481c0.684,2.324-0.532,4.788-2.748,5.767l-0.037,0.016c-0.917,0.405-1.935,0.519-2.919,0.327
						l-5.89-1.149c-3.941-0.769-6.447-4.702-5.421-8.584c0.288-1.088,0.784-2.298,1.558-3.638c0,0-0.811-2.088-0.625-4.949
						C125.657,198.858,129.031,196.015,132.832,196.384z"/>
					<g>
						<g>
							<path style="fill:#3B1010;" d="M132.169,196.352c0.219,0,0.441,0.01,0.664,0.032l9.072,0.88
								c0.749,0.073,1.489,0.241,2.176,0.549c0.023,0.01,0.047,0.021,0.07,0.032c3.003,1.384,3.413,5.652,0.64,7.453
								c-0.486,0.315-1.077,0.552-1.797,0.646c0,0,0.122,0.03,0.323,0.105c4.299,1.594,3.331,7.941-1.238,8.32
								c-0.224,0.019-0.458,0.028-0.705,0.028c-0.019,0-0.039,0-0.058,0c0,0,0.084,0.17,0.175,0.481
								c0.684,2.324-0.532,4.788-2.748,5.767l-0.037,0.016c-0.627,0.277-1.302,0.418-1.981,0.418c-0.313,0-0.627-0.03-0.938-0.091
								l-5.89-1.149c-3.941-0.769-6.447-4.702-5.421-8.584c0.288-1.088,0.784-2.298,1.558-3.638c0,0-0.811-2.088-0.625-4.949
								C125.643,199.081,128.646,196.352,132.169,196.352 M132.169,194.352C132.169,194.352,132.169,194.352,132.169,194.352
								c-4.611,0-8.457,3.596-8.755,8.187c-0.137,2.113,0.191,3.848,0.459,4.86c-0.599,1.146-1.045,2.268-1.33,3.346
								c-0.635,2.403-0.256,4.891,1.069,7.005c1.317,2.101,3.468,3.579,5.903,4.053l5.89,1.149c0.434,0.085,0.879,0.128,1.321,0.128
								c0.967,0,1.905-0.198,2.789-0.589c2.62-1.158,4.207-3.725,4.165-6.407c2.313-0.722,3.987-2.677,4.334-5.208
								c0.238-1.738-0.214-3.381-1.19-4.653c1.284-1.247,1.95-2.997,1.814-4.874c-0.167-2.321-1.566-4.359-3.65-5.32l-0.092-0.042
								c-0.836-0.374-1.778-0.614-2.798-0.713l-9.072-0.88C132.741,194.366,132.453,194.352,132.169,194.352L132.169,194.352z"/>
						</g>
					</g>
					<path style="fill:#E29781;" d="M145.247,207.445l-11.861-1.677c-0.319-0.046-0.542-0.349-0.497-0.668
						c0.01-0.045,0.023-0.098,0.04-0.14c0.099-0.248,0.35-0.402,0.624-0.367l9.488,1.344c-0.017,0.001-0.027,0.006-0.044,0.007
						c0,0,0.119,0.031,0.32,0.104C144.161,206.361,144.794,206.853,145.247,207.445z"/>
					<path style="fill:#E29781;" d="M141.623,215.528l-9.115-1.292c-0.326-0.048-0.549-0.352-0.504-0.67
						c0.01-0.045,0.02-0.091,0.04-0.14c0.099-0.248,0.35-0.402,0.631-0.364l9.294,1.315c-0.204,0.017-0.429,0.025-0.656,0.017
						c0,0,0.086,0.174,0.177,0.482C141.552,215.088,141.602,215.314,141.623,215.528z"/>
				</g>
			</g>
		</g>
		<g>
			<g>
				<path style="fill:#76182C;" d="M284.259,404.747v23.429h61.395c0,0,0.099-0.125,0.268-0.362
					c10.592-14.882-9.589-32.646-22.838-20.072c-0.454,0.431-0.906,0.895-1.354,1.392l-5.768-1.068l-8.352-5.833
					C307.611,402.233,300.832,408.691,284.259,404.747z"/>
				<g>
					<path style="fill:#3B1010;" d="M307.611,402.233l8.352,5.833l5.768,1.068c0.448-0.497,0.9-0.961,1.354-1.392
						c3.158-2.997,6.709-4.271,10.144-4.271c10.977,0,20.761,13.007,12.694,24.342c-0.168,0.237-0.268,0.362-0.268,0.362h-61.395
						v-23.429c3.877,0.923,7.217,1.276,10.061,1.276C303.632,406.023,307.611,402.233,307.611,402.233 M307.612,400.233
						c-0.494,0-0.984,0.182-1.366,0.538c-0.091,0.081-3.728,3.252-11.926,3.252c-2.962,0-6.192-0.411-9.598-1.221
						c-0.153-0.036-0.309-0.054-0.463-0.054c-0.446,0-0.883,0.149-1.24,0.431c-0.48,0.379-0.76,0.958-0.76,1.569v23.429
						c0,1.105,0.895,2,2,2h61.395c0.608,0,1.189-0.283,1.568-0.759c0,0,0.122-0.153,0.329-0.444
						c3.877-5.448,4.406-11.858,1.452-17.587c-3.058-5.931-9.398-9.915-15.775-9.915c-4.215,0-8.199,1.667-11.521,4.82
						c-0.23,0.219-0.46,0.445-0.687,0.677l-4.268-0.79l-7.996-5.585C308.41,400.352,308.01,400.233,307.612,400.233L307.612,400.233
						z"/>
				</g>
				<path style="fill:#F0BCA3;" d="M284.259,404.747l-9.732-40.194l24.944-4.656l8.14,42.336
					C307.611,402.233,300.678,408.996,284.259,404.747z"/>
				<g>
					<path style="fill:#3B1010;" d="M299.471,359.897l8.14,42.336c0,0-4.016,3.916-13.169,3.916c-2.876,0-6.257-0.386-10.183-1.402
						l-9.732-40.194L299.471,359.897 M299.473,357.897c-0.122,0-0.245,0.011-0.369,0.034l-24.944,4.656
						c-0.54,0.101-1.014,0.419-1.312,0.88c-0.298,0.461-0.394,1.024-0.265,1.557l9.732,40.194c0.174,0.717,0.728,1.281,1.443,1.466
						c3.759,0.973,7.353,1.466,10.684,1.466c9.854,0,14.378-4.301,14.565-4.484c0.481-0.469,0.695-1.149,0.568-1.81l-8.14-42.336
						C301.251,358.563,300.413,357.897,299.473,357.897L299.473,357.897z"/>
				</g>
				<path style="fill:#5E1323;" d="M348.057,423.724c-0.477,1.366-1.176,2.743-2.14,4.088c-0.159,0.244-0.265,0.36-0.265,0.36
					h-61.399v-4.448H348.057z"/>
			</g>
			<g>
				<g>
					<path style="fill:#76182C;" d="M225.488,404.934v23.246h-60.916c0,0-0.099-0.124-0.266-0.359
						c-10.509-14.766,9.514-32.391,22.66-19.915c0.451,0.428,0.899,0.887,1.344,1.381l5.722-1.06l8.74-5.87
						C202.772,402.357,209.045,408.847,225.488,404.934z"/>
				</g>
				<g>
					<g>
						<path style="fill:#3B1010;" d="M202.772,402.357c0,0,3.704,3.831,12.877,3.831c2.766,0,6.028-0.348,9.838-1.255v23.246
							h-60.916c0,0-0.099-0.124-0.266-0.359c-8.004-11.247,1.704-24.152,12.595-24.152c3.408,0,6.932,1.264,10.065,4.237
							c0.451,0.428,0.899,0.887,1.344,1.381l5.722-1.06L202.772,402.357 M202.772,400.357c-0.386,0-0.774,0.112-1.114,0.34
							l-8.397,5.639l-4.242,0.785c-0.224-0.228-0.45-0.451-0.676-0.666c-3.299-3.131-7.256-4.786-11.442-4.786
							c-6.333,0-12.628,3.957-15.665,9.846c-2.934,5.69-2.409,12.056,1.441,17.465c0.206,0.289,0.327,0.441,0.327,0.441
							c0.38,0.475,0.96,0.758,1.568,0.758h60.916c1.104,0,2-0.895,2-2v-23.246c0-0.612-0.28-1.19-0.76-1.569
							c-0.357-0.282-0.794-0.431-1.24-0.431c-0.154,0-0.31,0.018-0.463,0.054c-3.347,0.797-6.501,1.2-9.375,1.2
							c-8.098,0-11.408-3.189-11.44-3.221C203.822,400.565,203.299,400.357,202.772,400.357L202.772,400.357z"/>
					</g>
				</g>
				<path style="fill:#F0BCA3;" d="M226.287,365.057l-0.487,24.307l-0.307,15.569c-16.3,4.215-22.719-2.574-22.719-2.574
					l-0.466-15.749l-0.762-26.182L226.287,365.057z"/>
				<g>
					<path style="fill:#3B1010;" d="M201.542,360.434l24.749,4.62l-0.803,39.88c-3.859,0.999-7.162,1.379-9.96,1.379
						c-9.012,0-12.756-3.956-12.756-3.956L201.542,360.434 M201.542,358.434c-0.473,0-0.935,0.168-1.3,0.48
						c-0.46,0.393-0.717,0.974-0.699,1.578l1.23,41.923c0.014,0.491,0.209,0.959,0.546,1.316c0.177,0.187,4.447,4.581,14.208,4.581
						c3.241,0,6.76-0.486,10.461-1.443c0.868-0.225,1.481-0.999,1.499-1.896l0.804-39.88c0.02-0.978-0.671-1.827-1.633-2.006
						l-24.749-4.62C201.787,358.445,201.664,358.434,201.542,358.434L201.542,358.434z"/>
				</g>
				<path style="fill:#5E1323;" d="M162.156,423.724h63.337v4.459h-60.922c0,0-0.095-0.127-0.265-0.36
					C163.342,426.467,162.643,425.1,162.156,423.724z"/>
			</g>
			<path style="fill:#D1826B;" d="M226.287,365.057l-0.487,24.307c-6.768,0.085-15.188-0.455-23.492-2.754l-0.762-26.182
				L226.287,365.057z"/>
			<path style="fill:#D1826B;" d="M304.96,388.443c-5.73,2.574-13.451,4.862-23.333,5.423l-7.096-29.317l24.943-4.65L304.96,388.443
				z"/>
			<path style="fill:#3B1010;" d="M321.73,409.135c0,0-2.262,3.033-2.796,8.161c-0.048,0.465-0.462,0.804-0.924,0.735l0,0
				c-0.44-0.066-0.744-0.469-0.684-0.909c0.241-1.767,1.03-6.095,3.227-8.952L321.73,409.135z"/>
			<path style="fill:#3B1010;" d="M188.31,409.287c0,0,1.844,3.06,2.291,9.685c0.029,0.426,0.377,0.765,0.803,0.765l0,0
				c0.473,0,0.844-0.402,0.806-0.873c-0.165-2.002-0.761-7.007-2.737-10.36L188.31,409.287z"/>
			<path style="fill:#851B31;" d="M185.859,410.244c1.004,3.93-2.847,8.309-8.603,9.78c-5.756,1.471-11.236-0.523-12.241-4.453
				c-1.004-3.93,2.848-8.309,8.603-9.78C179.375,404.32,184.855,406.314,185.859,410.244z"/>
			<path style="fill:#851B31;" d="M324.376,410.441c-1.004,3.93,2.848,8.309,8.603,9.78c5.756,1.471,11.236-0.523,12.241-4.453
				c1.004-3.93-2.848-8.309-8.603-9.78C330.86,404.517,325.38,406.511,324.376,410.441z"/>
		</g>
		<g>
			<g>
				<g>
					<g>
						<path style="fill:#A69695;" d="M371.296,299.036l-3.407,2.96l-8.282-9.532c-0.878-1.011-2.414-1.118-3.424-0.24
							l-32.066,27.863c-1.01,0.878-1.118,2.414-0.24,3.424l8.282,9.532l-3.407,2.96l-8.282-9.532
							c-2.51-2.889-2.202-7.281,0.686-9.791l32.066-27.863c2.889-2.51,7.281-2.202,9.791,0.687L371.296,299.036z"/>
					</g>
					<g>
						<g>
							<path style="fill:#3B1010;" d="M357.77,287.12c1.942,0,3.873,0.808,5.244,2.385l8.282,9.532l-3.407,2.96l-8.282-9.532
								c-0.479-0.552-1.155-0.834-1.834-0.834c-0.565,0-1.132,0.195-1.591,0.594l-32.066,27.863c-1.01,0.878-1.118,2.414-0.24,3.424
								l8.282,9.532l-3.407,2.96l-8.282-9.532c-2.51-2.889-2.202-7.281,0.686-9.791l32.066-27.863
								C354.534,287.679,356.156,287.12,357.77,287.12 M357.771,285.12L357.771,285.12c-2.155,0-4.236,0.777-5.86,2.189
								l-32.066,27.863c-1.8,1.564-2.884,3.739-3.051,6.123c-0.167,2.384,0.603,4.689,2.167,6.489l8.282,9.532
								c0.348,0.4,0.841,0.646,1.37,0.683c0.047,0.003,0.094,0.005,0.14,0.005c0.48,0,0.947-0.173,1.312-0.49l3.407-2.96
								c0.834-0.724,0.922-1.988,0.198-2.822l-8.282-9.532c-0.095-0.11-0.108-0.229-0.103-0.31c0.006-0.081,0.035-0.197,0.145-0.292
								l32.066-27.863c0.099-0.086,0.206-0.104,0.279-0.104c0.074,0,0.214,0.019,0.324,0.146l8.282,9.532
								c0.348,0.4,0.841,0.646,1.37,0.683c0.047,0.003,0.093,0.005,0.14,0.005c0.48,0,0.947-0.173,1.312-0.49l3.407-2.96
								c0.834-0.725,0.922-1.988,0.198-2.822l-8.282-9.532C362.827,286.24,360.365,285.12,357.771,285.12L357.771,285.12z"/>
						</g>
					</g>
					<path style="fill:#B7A6A5;" d="M353.47,294.582L326.83,317.73c-0.941,0.818-2.366,0.717-3.184-0.223l0,0
						c-0.817-0.941-0.717-2.366,0.223-3.184l26.639-23.148c0.941-0.817,2.366-0.717,3.184,0.223l0,0
						C354.51,292.34,354.41,293.765,353.47,294.582z"/>
				</g>
				<g>
					<path style="fill:#FFA200;" d="M371.033,299.504l-41.689,36.224c-0.532,0.462-0.923,1.064-1.129,1.738l-4.108,13.418
						c-0.38,1.24-0.094,2.588,0.757,3.567l26.99,31.061c1.362,1.568,3.737,1.734,5.305,0.372l19.179-16.665l21.298-18.507
						l19.179-16.665c1.568-1.362,1.734-3.737,0.372-5.304l-26.99-31.061c-0.851-0.979-2.146-1.45-3.426-1.248l-13.86,2.195
						C372.215,298.738,371.565,299.042,371.033,299.504z"/>
					<path style="fill:#F57B00;" d="M391.973,299.717l15.637,17.995c-0.172,1.147-0.742,2.25-1.683,3.068l-38.371,33.342
						c-2.096,1.821-5.284,1.598-7.105-0.498l-14.873-17.116l43.807-38.065C390.373,298.504,391.309,298.953,391.973,299.717z"/>
					<path style="fill:#FFA200;" d="M389.547,297.087l-65.178,56.635c-0.456-0.866-0.56-1.883-0.268-2.838l4.119-13.415
						c0.206-0.678,0.59-1.276,1.123-1.74l41.694-36.229c0.524-0.455,1.179-0.76,1.879-0.869l13.85-2.198
						C387.752,296.277,388.753,296.514,389.547,297.087z"/>
					<path style="fill:#FFA200;" d="M389.522,297.076c-0.786-0.563-1.779-0.791-2.757-0.643l-13.85,2.198
						c-0.7,0.109-1.355,0.414-1.879,0.869l-41.694,36.229c-0.533,0.463-0.917,1.062-1.123,1.74l-0.044,0.147
						c0.252-0.733,0.907-1.271,1.674-1.392l14.499-2.294c0.725-0.116,1.457,0.152,1.944,0.712l13.716,15.785
						c1.186,1.365,3.253,1.51,4.618,0.324L403,317.406c1.365-1.186,1.51-3.253,0.324-4.618L389.522,297.076z"/>
					<g>
						<path style="fill:#3B1010;" d="M387.349,296.389c0.781,0,1.543,0.236,2.172,0.687l13.802,15.711
							c1.186,1.365,1.041,3.432-0.324,4.618l-38.373,33.344c-0.62,0.539-1.385,0.803-2.146,0.803c-0.915,0-1.825-0.382-2.472-1.126
							l-13.716-15.785c-0.411-0.473-0.999-0.738-1.609-0.738c-0.111,0-0.223,0.009-0.334,0.027l-14.499,2.294
							c-0.768,0.121-1.423,0.659-1.674,1.392l0.044-0.147c0.206-0.678,0.59-1.277,1.123-1.74l41.694-36.229
							c0.524-0.455,1.179-0.76,1.879-0.869l13.85-2.198C386.96,296.404,387.155,296.389,387.349,296.389 M387.349,294.389
							c-0.295,0-0.592,0.022-0.884,0.067l-13.864,2.2c-1.069,0.167-2.065,0.629-2.878,1.335l-41.694,36.229
							c-0.812,0.706-1.409,1.628-1.725,2.668l-0.047,0.159c-0.31,1.043,0.271,2.143,1.307,2.475c0.203,0.065,0.408,0.096,0.61,0.096
							c0.832,0,1.607-0.523,1.891-1.351c0.008-0.022,0.048-0.059,0.095-0.066l14.499-2.295c0.003,0,0.006,0,0.009,0
							c0.053,0,0.086,0.018,0.113,0.048l13.716,15.785c1.002,1.153,2.453,1.815,3.982,1.815c1.27,0,2.498-0.459,3.458-1.293
							l38.374-33.344c1.063-0.924,1.703-2.207,1.802-3.612c0.098-1.405-0.356-2.765-1.28-3.828l-13.81-15.719
							c-0.1-0.114-0.214-0.217-0.337-0.306C389.718,294.756,388.564,294.389,387.349,294.389L387.349,294.389z"/>
					</g>
					<g>
						<path style="fill:#3B1010;" d="M387.294,296.394c0.116,0,0.231,0.005,0.346,0.013c0.082,0.006,0.16,0.021,0.241,0.033
							c0.215,0.03,0.424,0.077,0.629,0.143c0.076,0.024,0.15,0.047,0.223,0.076c0.231,0.09,0.45,0.203,0.659,0.339
							c0.036,0.023,0.074,0.039,0.109,0.063c0.007,0.005,0.015,0.008,0.022,0.013l13.8,15.714l13.863,15.954
							c1.362,1.568,1.196,3.942-0.372,5.305l-19.179,16.665l-21.298,18.507l-1.614,1.402l-17.565,15.263l-1.224,1.064
							c-0.405,0.352-0.904,0.524-1.401,0.524c-0.598,0-1.192-0.249-1.615-0.736l-1.064-1.224l-26.99-31.061l-0.59-0.679
							c-0.484-0.557-0.646-1.323-0.43-2.028l0.245-0.8c0.005-0.019,0.006-0.039,0.012-0.059l2.242-7.303l1.872-6.116
							c0.136-0.444,0.359-0.851,0.642-1.213c0.146-0.187,0.303-0.366,0.485-0.523l41.694-36.229
							c0.131-0.114,0.271-0.218,0.417-0.313c0.44-0.286,0.936-0.477,1.458-0.56l11.603-1.838l2.251-0.357
							C386.942,296.405,387.118,296.394,387.294,296.394 M387.294,294.394c-0.294,0-0.569,0.021-0.841,0.064l-2.252,0.357
							l-11.603,1.838c-0.802,0.127-1.553,0.415-2.234,0.857c-0.222,0.143-0.438,0.306-0.64,0.481l-41.693,36.229
							c-0.258,0.225-0.504,0.487-0.75,0.803c-0.444,0.567-0.774,1.193-0.977,1.857l-1.873,6.116l-2.242,7.302
							c-0.014,0.045-0.027,0.097-0.039,0.149l-0.218,0.711c-0.421,1.374-0.109,2.841,0.833,3.926l0.59,0.679l26.99,31.061
							l1.064,1.224c0.786,0.905,1.925,1.424,3.125,1.424c0.997,0,1.96-0.36,2.713-1.014l1.224-1.064l17.565-15.263l1.614-1.402
							l21.298-18.507l19.179-16.665c1.161-1.009,1.86-2.41,1.968-3.945s-0.389-3.02-1.398-4.181l-13.863-15.954l-13.807-15.722
							c-0.102-0.116-0.217-0.22-0.344-0.31c-0.044-0.031-0.093-0.063-0.142-0.092c-0.038-0.024-0.075-0.045-0.113-0.066
							c-0.3-0.19-0.625-0.355-0.963-0.488c-0.101-0.04-0.204-0.074-0.309-0.108c-0.346-0.111-0.67-0.185-0.999-0.231
							c-0.148-0.023-0.256-0.038-0.367-0.046C387.624,294.401,387.459,294.394,387.294,294.394L387.294,294.394z"/>
					</g>
					<path style="fill:#F58B00;" d="M374.724,370.62l-18.79,16.327c-0.891,0.775-2.242,0.68-3.016-0.212l-28.643-32.964
						c-0.484-0.557-0.646-1.323-0.43-2.028l4.296-14.031c0.239-0.781,0.903-1.358,1.71-1.486l14.494-2.296
						c0.728-0.115,1.465,0.153,1.948,0.709l28.643,32.964C375.71,368.495,375.615,369.846,374.724,370.62z"/>
					<path style="fill:#F28200;" d="M374.721,370.623l-18.781,16.326c-0.898,0.775-2.251,0.676-3.026-0.212l-21.545-24.804
						c6.557,4.086,21.7,10.864,39.497,0.984l4.068,4.691C375.708,368.495,375.619,369.848,374.721,370.623z"/>
					<path style="fill:#FFAE00;" d="M403.539,316.805l-15.226-16.893c-0.539-0.598-1.343-0.885-2.139-0.764l-11.934,1.815
						c-0.452,0.069-0.874,0.265-1.218,0.566l-38.827,34.007l-4.341,0.684c-0.767,0.12-1.424,0.669-1.678,1.395l0.045-0.141
						c0.203-0.681,0.592-1.277,1.127-1.744l41.689-36.23c0.525-0.456,1.175-0.76,1.879-0.866l13.853-2.196
						c0.978-0.154,1.967,0.074,2.755,0.642l13.798,15.707C404.323,313.936,404.38,315.599,403.539,316.805z"/>
				</g>
				<g>
					<path style="fill:#3B1010;" d="M344.678,333.904c0.614,0,1.204,0.264,1.614,0.736l28.643,32.964
						c0.774,0.891,0.68,2.242-0.212,3.016l-18.79,16.327c-0.405,0.352-0.904,0.524-1.401,0.524c-0.598,0-1.192-0.249-1.615-0.736
						l-28.643-32.964c-0.484-0.557-0.646-1.323-0.43-2.028l4.296-14.031c0.239-0.781,0.903-1.358,1.71-1.486l14.494-2.296
						C344.455,333.913,344.567,333.904,344.678,333.904 M344.678,331.904c-0.216,0-0.434,0.017-0.647,0.051l-14.494,2.296
						c-1.551,0.246-2.85,1.374-3.309,2.876l-4.296,14.031c-0.421,1.374-0.109,2.841,0.833,3.926l28.643,32.964
						c0.786,0.905,1.925,1.424,3.125,1.424c0.997,0,1.96-0.36,2.713-1.015l18.79-16.327c1.722-1.497,1.906-4.116,0.409-5.838
						l-28.643-32.964C347.015,332.423,345.877,331.904,344.678,331.904L344.678,331.904z"/>
				</g>
				<g>
					<path style="fill:#F58B00;" d="M374.097,352.484c-0.441-0.508-1.215-0.561-1.722-0.121c-0.508,0.443-0.562,1.216-0.12,1.722
						l7.5,8.632c0.258,0.297,0.63,0.439,0.996,0.417c0.259-0.016,0.516-0.113,0.726-0.296c0.508-0.441,0.562-1.214,0.121-1.722
						L374.097,352.484z"/>
					<path style="fill:#F58B00;" d="M382.405,345.265c-0.442-0.508-1.214-0.562-1.722-0.121c-0.246,0.214-0.394,0.51-0.417,0.836
						c-0.022,0.326,0.083,0.641,0.296,0.886l7.5,8.632c0.259,0.298,0.63,0.439,0.996,0.417c0.259-0.016,0.515-0.114,0.726-0.296
						c0.246-0.214,0.394-0.51,0.417-0.836c0.023-0.325-0.083-0.64-0.296-0.886L382.405,345.265z"/>
					<path style="fill:#F58B00;" d="M390.713,338.047c-0.441-0.508-1.214-0.562-1.721-0.121c-0.508,0.441-0.562,1.214-0.121,1.722
						l7.501,8.632c0.259,0.297,0.63,0.439,0.995,0.417c0.26-0.016,0.515-0.114,0.726-0.296c0.508-0.441,0.562-1.214,0.121-1.722
						L390.713,338.047z"/>
					<path style="fill:#F58B00;" d="M399.021,330.828c-0.443-0.508-1.214-0.561-1.722-0.121c-0.508,0.441-0.562,1.214-0.121,1.722
						l7.501,8.632c0.258,0.298,0.63,0.439,0.996,0.417c0.259-0.016,0.515-0.114,0.726-0.296c0.246-0.215,0.394-0.512,0.416-0.837
						c0.023-0.326-0.083-0.64-0.296-0.885L399.021,330.828z"/>
					<path style="fill:#F58B00;" d="M414.829,332.241l-7.5-8.632c-0.442-0.509-1.215-0.561-1.722-0.121
						c-0.507,0.442-0.562,1.214-0.121,1.722l7.501,8.632c0.258,0.297,0.63,0.439,0.996,0.417c0.259-0.015,0.514-0.114,0.725-0.296
						C415.216,333.521,415.27,332.748,414.829,332.241z"/>
				</g>
				<path style="fill:#76182C;" d="M376.557,334.708l7.147,8.225c0.479,0.551,0.419,1.397-0.132,1.876l-1.252,1.088
					c-0.551,0.479-1.397,0.419-1.876-0.132l-7.147-8.225c-0.486-0.559-0.427-1.406,0.124-1.885l1.252-1.088
					C375.224,334.089,376.071,334.148,376.557,334.708z"/>
				<path style="fill:#76182C;" d="M394.615,319.017l7.147,8.225c0.479,0.551,0.419,1.397-0.14,1.884l-1.244,1.081
					c-0.56,0.486-1.406,0.427-1.885-0.124l-7.147-8.225c-0.486-0.56-0.427-1.406,0.133-1.892l1.243-1.081
					C393.282,318.398,394.128,318.458,394.615,319.017z"/>
				<g>
					<path style="fill:#3B1010;" d="M375.549,334.243c0.373,0,0.745,0.156,1.009,0.46l7.147,8.225
						c0.484,0.557,0.425,1.401-0.132,1.884l-1.247,1.084c-0.253,0.22-0.565,0.327-0.876,0.327c-0.373,0-0.745-0.156-1.009-0.46
						l-7.147-8.225c-0.484-0.557-0.425-1.401,0.132-1.884l1.247-1.084C374.926,334.351,375.238,334.243,375.549,334.243
						 M375.549,332.243L375.549,332.243c-0.804,0-1.581,0.29-2.187,0.818l-1.247,1.084c-0.673,0.584-1.077,1.396-1.14,2.285
						c-0.062,0.889,0.225,1.749,0.809,2.421l7.147,8.225c0.634,0.729,1.552,1.148,2.519,1.148c0.804,0,1.58-0.29,2.187-0.818
						l1.247-1.084c1.388-1.207,1.536-3.318,0.33-4.706l-7.147-8.225C377.434,332.662,376.516,332.243,375.549,332.243
						L375.549,332.243z"/>
				</g>
				<g>
					<path style="fill:#3B1010;" d="M393.602,318.556c0.373,0,0.745,0.156,1.009,0.46l7.147,8.225
						c0.484,0.557,0.425,1.401-0.132,1.884l-1.247,1.084c-0.253,0.22-0.565,0.327-0.876,0.327c-0.373,0-0.745-0.156-1.009-0.46
						l-7.147-8.225c-0.484-0.557-0.425-1.401,0.132-1.885l1.247-1.084C392.98,318.664,393.292,318.556,393.602,318.556
						 M393.603,316.556C393.602,316.556,393.602,316.556,393.603,316.556c-0.804,0-1.581,0.29-2.187,0.818l-1.247,1.084
						c-1.388,1.206-1.536,3.317-0.33,4.706l7.147,8.225c0.634,0.73,1.552,1.148,2.519,1.148c0.804,0,1.58-0.29,2.187-0.818
						l1.247-1.084c0.673-0.585,1.077-1.396,1.14-2.285c0.062-0.889-0.225-1.749-0.81-2.421l-7.147-8.225
						C395.487,316.974,394.569,316.556,393.603,316.556L393.603,316.556z"/>
				</g>
				<path style="fill:#872338;" d="M376.557,334.708l4.469,5.143c0.486,0.56,0.427,1.406-0.124,1.885l-1.252,1.088
					c-0.551,0.478-1.397,0.419-1.884-0.14l-4.469-5.143c-0.486-0.559-0.427-1.406,0.124-1.885l1.252-1.088
					C375.224,334.089,376.071,334.148,376.557,334.708z"/>
				<path style="fill:#872338;" d="M394.615,319.017l4.469,5.143c0.486,0.56,0.427,1.406-0.133,1.892l-1.243,1.081
					c-0.56,0.486-1.406,0.427-1.892-0.133l-4.469-5.143c-0.486-0.56-0.427-1.406,0.133-1.892l1.243-1.081
					C393.282,318.398,394.128,318.458,394.615,319.017z"/>
				<path style="fill:#E07100;" d="M345.478,338.299l-17.676,15.359c-0.295,0.257-0.743,0.225-0.999-0.07l0,0
					c-0.257-0.295-0.225-0.743,0.07-0.999l17.676-15.359c0.295-0.257,0.742-0.225,0.999,0.07l0,0
					C345.805,337.596,345.773,338.043,345.478,338.299z"/>
				<path style="fill:#F58B00;" d="M389.037,300.45l-36.791,31.969c-0.295,0.257-0.742,0.225-0.999-0.07l0,0
					c-0.257-0.295-0.225-0.742,0.07-0.999l36.791-31.969c0.295-0.257,0.743-0.225,0.999,0.07l0,0
					C389.363,299.746,389.332,300.194,389.037,300.45z"/>
			</g>
			<g>
				<path style="fill:#F0BCA3;" d="M276.908,237.208l19.011,31.722c1.338,2.232,2.836,4.363,4.483,6.378l24.019,29.374
					c0,0,12.478-3.096,19.496-15.822l-25.202-31.301l-19.505-40.039L276.908,237.208z"/>
				<path style="fill:#F0BCA3;" d="M359.628,303.053c-0.591,3.611-3.142,5.121-3.142,5.121c0.014,0.052,0.027,0.104,0.051,0.145
					c1.645,5.154-3.027,10.08-8.33,9.039c-1.332-0.271-2.183-0.665-2.183-0.665c-0.033,0.151-0.077,0.302-0.132,0.453
					c-0.577,1.881-2.002,3.08-3.64,3.539c-2.212,0.62-4.574-0.374-5.937-2.224l-7.145-10.573c-0.072,0.047-0.122,0.092-0.193,0.15
					l-0.698,0.572l-4.515,3.633c-0.477-1.064-0.857-2.092-1.169-3.06c-1.842-5.8-1.054-9.826-1.054-9.826l19.719-11.639
					c1.803-0.192,3.509-0.05,5.055,0.261c3.943,0.815,5.496,1.271,8.139,4.296l3.442,3.975
					C359.318,298.212,360.026,300.652,359.628,303.053z"/>
				<path style="fill:#D1826B;" d="M340.709,307.968l1.813,2.375c2.517,3.122,3.374,5.837,3.643,7.586
					c0.69,0.124,1.363,0.166,2.018,0.091c-0.321-4.183-2.985-7.214-2.985-7.214l-2.901-3.84c-0.279-0.336-0.689-0.7-1.364-0.378
					C340.525,306.861,340.338,307.484,340.709,307.968z"/>
				<path style="fill:#D1826B;" d="M350.678,301.893c2.991,2.576,4.922,4.967,6.1,6.745c0.403-0.342,0.935-0.892,1.43-1.674
					c-2.044-3.079-4.807-5.598-6.134-6.731c-0.223-0.187-0.499-0.276-0.769-0.26c-0.258,0.015-0.51,0.125-0.71,0.337
					C350.151,300.759,350.207,301.486,350.678,301.893z"/>
				<path style="fill:#D1826B;" d="M342.904,287.602c0,0-3.959,0.079-8.293,1.132c-0.62,0.151-1.238-0.255-1.359-0.881l0,0
					c-0.114-0.59,0.25-1.163,0.833-1.307c1.351-0.333,3.939-0.85,7.22-0.929L342.904,287.602z"/>
				<g>
					<path style="fill:#3B1010;" d="M299.21,217.516l19.506,40.046l24.216,30.077c1.189,0.003,2.321,0.127,3.384,0.339
						c3.943,0.815,5.496,1.271,8.139,4.296l3.442,3.975c1.422,1.963,2.13,4.403,1.733,6.804c-0.591,3.611-3.142,5.121-3.142,5.121
						c0.014,0.052,0.027,0.104,0.051,0.145c1.495,4.683-2.227,9.179-6.898,9.179c-0.469,0-0.948-0.045-1.432-0.14
						c-1.332-0.271-2.183-0.665-2.183-0.665c-0.034,0.151-0.077,0.302-0.132,0.454c-0.577,1.881-2.002,3.08-3.64,3.538
						c-0.446,0.125-0.898,0.184-1.347,0.184c-1.777,0-3.502-0.931-4.59-2.408l-7.145-10.573c-0.072,0.047-0.122,0.092-0.193,0.149
						l-0.688,0.561l-4.525,3.644c-0.477-1.064-0.857-2.092-1.169-3.06c-1.149-3.603-1.27-6.524-1.212-8.214l-20.981-25.665
						c-1.648-2.013-3.144-4.141-4.487-6.374l-19.009-31.725L299.21,217.516 M299.21,215.516c-0.483,0-0.955,0.175-1.324,0.501
						l-22.305,19.688c-0.723,0.638-0.888,1.701-0.392,2.527l19.009,31.725c1.395,2.32,2.961,4.544,4.655,6.613l20.517,25.098
						c0.001,1.978,0.262,4.809,1.318,8.123c0.375,1.163,0.784,2.231,1.25,3.271c0.254,0.566,0.755,0.981,1.358,1.126
						c0.154,0.037,0.311,0.055,0.467,0.055c0.452,0,0.895-0.153,1.254-0.442l3.712-2.99l5.927,8.771
						c0.015,0.022,0.031,0.044,0.047,0.066c1.486,2.018,3.804,3.222,6.2,3.222c0.64,0,1.275-0.087,1.887-0.259
						c1.926-0.539,3.469-1.758,4.399-3.432c0.195,0.048,0.401,0.095,0.618,0.139c0.614,0.121,1.225,0.18,1.83,0.18
						c2.95,0,5.755-1.429,7.504-3.823c1.452-1.988,2.009-4.397,1.595-6.764c1.036-1.001,2.416-2.797,2.864-5.536
						c0.471-2.843-0.27-5.792-2.087-8.3c-0.034-0.047-0.07-0.092-0.108-0.136l-3.442-3.975c-3.097-3.546-5.186-4.107-9.246-4.946
						c-0.93-0.186-1.869-0.304-2.809-0.353l-23.496-29.183l-19.407-39.843c-0.274-0.562-0.794-0.963-1.406-1.085
						C299.471,215.529,299.34,215.516,299.21,215.516L299.21,215.516z"/>
				</g>
			</g>
			<path style="fill:#E29781;" d="M314.003,247.888c-4.805,4.416-12.317,10.253-22.034,14.455l-0.011,0l-15.056-25.134l0.011,0
				l22.294-19.695l0,0.011L314.003,247.888z"/>
		</g>
		<g>
			<g>
				<g>
					<path style="fill:#FFA200;" d="M208.822,200.485l-27.237,15.336c0,0,0.397,20.819,15.364,38.37l31.248-19.113
						C228.198,235.077,224.355,209.291,208.822,200.485z"/>
					<g>
						<path style="fill:#3B1010;" d="M208.822,200.485c15.533,8.806,19.376,34.593,19.376,34.593l-31.248,19.113
							c-14.967-17.552-15.364-38.37-15.364-38.37L208.822,200.485 M208.822,198.485c-0.338,0-0.677,0.086-0.981,0.257
							l-27.237,15.336c-0.641,0.361-1.032,1.045-1.018,1.781c0.017,0.879,0.586,21.74,15.842,39.63
							c0.392,0.46,0.954,0.702,1.523,0.702c0.358,0,0.719-0.096,1.043-0.294l31.248-19.114c0.685-0.419,1.053-1.207,0.935-2.001
							c-0.041-0.272-1.027-6.752-3.974-14.417c-4.022-10.46-9.538-17.734-16.393-21.621
							C209.503,198.572,209.162,198.485,208.822,198.485L208.822,198.485z"/>
					</g>
					
						<path style="opacity:0.2;fill:none;stroke:#FFFFFF;stroke-width:1.4168;stroke-linecap:round;stroke-linejoin:round;stroke-miterlimit:10;stroke-dasharray:0.9445,3.3059;" d="
						M184.577,215.924c0,0,2.177,21.59,14.57,34.704"/>
				</g>
				<g>
					<path style="fill:#FFA200;" d="M256.432,186.491l26.196,8.313c0,0-1.292,44.004,4.602,83.038c0,0-48.7,23.142-90.57,3.19
						c0,0,5.962-56.874,12.162-80.547l14.318-6.235L256.432,186.491z"/>
					<g>
						<path style="fill:#3B1010;" d="M256.432,186.491l26.196,8.313l3.692,1.284c5.057,1.759,9.36,5.194,12.195,9.735l19.709,31.569
							c0,0-11.434,14.432-30.787,21.879l-2.87-4.15c0.662,7.526,1.529,15.215,2.663,22.721c0,0-23.778,11.3-52.391,11.3
							c-12.334,0-25.567-2.1-38.179-8.11c0,0,5.962-56.874,12.162-80.547l14.318-6.235L256.432,186.491 M256.432,184.491
							c-0.152,0-0.305,0.017-0.454,0.052l-33.292,7.759c-0.118,0.028-0.233,0.066-0.345,0.114l-14.318,6.235
							c-0.562,0.245-0.981,0.734-1.136,1.327c-6.168,23.549-11.972,78.517-12.216,80.845c-0.088,0.843,0.364,1.65,1.129,2.014
							c11.564,5.511,24.699,8.305,39.039,8.305c28.734,0,52.262-11.024,53.25-11.494c0.796-0.378,1.251-1.233,1.119-2.105
							c-0.771-5.102-1.456-10.56-2.046-16.292c0.091,0.013,0.184,0.019,0.277,0.019c0.24,0,0.483-0.043,0.718-0.134
							c19.637-7.556,31.155-21.897,31.636-22.504c0.525-0.663,0.577-1.584,0.129-2.301l-19.709-31.569
							c-3.066-4.911-7.766-8.663-13.234-10.565l-3.692-1.284c-0.017-0.006-0.035-0.012-0.052-0.017l-26.196-8.313
							C256.84,184.522,256.636,184.491,256.432,184.491L256.432,184.491z"/>
					</g>
					
						<path style="fill:none;stroke:#FF8300;stroke-width:1.5887;stroke-linecap:round;stroke-linejoin:round;stroke-miterlimit:10;stroke-dasharray:0.9445,3.3059;" d="
						M216.874,197.305c0,0,24.128,12.337,47.173-7.283"/>
				</g>
				<g>
					<g>
						<path style="fill:#FFA200;" d="M282.628,194.804l3.692,1.284c5.057,1.759,9.36,5.194,12.195,9.735l19.709,31.569
							c0,0-11.434,14.432-30.787,21.879l-5.05-7.302c-8.771-12.681-11.79-28.658-7.498-43.468
							C276.429,203.188,278.856,198.253,282.628,194.804z"/>
						<g>
							<polygon style="fill:#3B1010;" points="287.849,260.923 286.216,261.305 280.159,252.434 282.625,252.312 287.438,259.271 
															"/>
						</g>
					</g>
					
						<path style="fill:none;stroke:#FF8300;stroke-width:1.5887;stroke-linecap:round;stroke-linejoin:round;stroke-miterlimit:10;" d="
						M279.239,198.788c0,0-12.059,17.422-2.749,43.035"/>
				</g>
			</g>
			<g>
				<path style="fill:#2D3C66;" d="M203.021,298.281l-11.485-0.991c-1.319-0.114-2.486,0.849-2.626,2.165l-2.954,27.77
					c-0.38,3.571,2.034,6.837,5.56,7.521c2.16,0.419,4.856,0.501,8.022-0.253L203.021,298.281z"/>
				<path style="fill:#3B4D7C;" d="M204.743,220.449c0,0,22.887-6.561,61.784-0.589c0,0-0.257,28.521,18.03,35.143
					c0,0,22.332,92.749,30.69,121.206c0,0-16.279,17.44-52.619,11.606c0,0-10.964-49.184-14.117-70.475c0,0-4.411,0.177-6.672,0.151
					c0,0-3.473,53.195-5.225,65.407c0,0-28.789,4.825-47.161-8.122C189.453,374.778,190.506,302.588,204.743,220.449z"/>
				<g>
					<path style="fill:#2D3C66;" d="M238.446,365.472c-0.665,7.365-1.32,13.84-1.837,17.425c0,0-28.78,4.826-47.161-8.122
						c0,0,0.093-6.386,0.674-17.681c0.572,0.017,1.142,0.161,1.647,0.442c5.6,3.103,17.521,8.341,34.625,8.533
						c3.686,0.041,7.469-0.16,11.255-0.584c0.106-0.02,0.254-0.029,0.403-0.027c0.021-0.01,0.074-0.01,0.096-0.01
						C238.245,365.449,238.351,365.45,238.446,365.472z"/>
					<path style="fill:#2D3C66;" d="M315.246,376.214c0,0-16.274,17.433-52.614,11.603c0,0-2.124-8.01-4.768-18.801
						c0.489-0.132,1.019-0.158,1.537-0.068c2.389,0.397,6.197,0.885,10.836,0.937c10.104,0.113,24.976-1.849,38.444-11.857
						c0.374-0.271,0.924-0.632,1.371-0.754C312.108,364.722,313.828,371.368,315.246,376.214z"/>
				</g>
				<g>
					<path style="fill:#2D3C66;" d="M268.216,233.15c-0.503,5.195-0.668,9.547-0.709,12.237c-0.053,2.891-2.147,5.357-4.98,5.876
						c-3.333,0.609-6.651,0.9-9.839,0.864c-1.303-0.015-2.573-0.082-3.768-0.201c-3.142-0.321-5.486-2.943-5.461-6.099
						c0.088-10.718,1.232-20.143,2.836-28.143c6.15,0.365,12.911,1.045,20.238,2.175
						C266.533,219.859,266.475,225.938,268.216,233.15z"/>
					<path style="fill:#2D3C66;" d="M221.528,217.872c-1.141,7.349-2.27,16.392-3.099,27.018c-0.222,2.815-2.513,4.992-5.321,5.067
						c-0.826,0.023-1.653,0.034-2.468,0.025c-3.262-0.036-6.129-0.323-8.528-0.848c-0.666-0.145-1.277-0.396-1.824-0.751
						c1.319-9.02,2.79-18.357,4.454-27.934C204.742,220.449,210.64,218.757,221.528,217.872z"/>
				</g>
				<g>
					<path style="fill:#2D3C66;" d="M245.333,255.273c0.815,0.009,1.468,0.677,1.459,1.492l-0.015,1.335
						c-0.114,10.2-8.475,18.375-18.675,18.261h0c-10.2-0.114-18.375-8.475-18.261-18.675l0.015-1.335
						c0.009-0.815,0.677-1.468,1.492-1.459L245.333,255.273 M245.357,253.158l-33.985-0.38c-1.98-0.022-3.608,1.57-3.631,3.55
						l-0.015,1.335c-0.127,11.35,9.003,20.686,20.353,20.814c11.35,0.127,20.686-9.003,20.813-20.353l0.015-1.335
						C248.929,254.809,247.337,253.18,245.357,253.158L245.357,253.158z"/>
					<g>
						<path style="fill:#4E6191;" d="M244.884,258.181l-0.198-0.002c-0.305-0.004-0.549-0.253-0.545-0.558
							c0.003-0.305,0.253-0.549,0.558-0.545l0.198,0.002c0.305,0.003,0.549,0.253,0.545,0.558
							C245.439,257.94,245.189,258.184,244.884,258.181z M242.481,258.154l-1.103-0.012c-0.305-0.003-0.549-0.253-0.545-0.558
							c0.003-0.305,0.253-0.549,0.558-0.545l1.103,0.012c0.305,0.003,0.549,0.253,0.545,0.558S242.786,258.158,242.481,258.154z
							 M239.172,258.117l-1.103-0.012c-0.305-0.003-0.549-0.253-0.545-0.558c0.003-0.305,0.253-0.549,0.558-0.545l1.103,0.012
							c0.305,0.003,0.549,0.253,0.545,0.558C239.727,257.877,239.477,258.12,239.172,258.117z M235.864,258.08l-1.103-0.012
							c-0.305-0.003-0.549-0.253-0.545-0.558c0.003-0.305,0.253-0.549,0.558-0.545l1.103,0.012c0.305,0.003,0.549,0.253,0.545,0.558
							C236.418,257.84,236.168,258.083,235.864,258.08z M232.555,258.043l-1.103-0.012c-0.305-0.003-0.549-0.253-0.545-0.558
							c0.003-0.305,0.253-0.549,0.558-0.545l1.103,0.012c0.305,0.003,0.549,0.253,0.545,0.558
							C233.109,257.802,232.86,258.046,232.555,258.043z M229.246,258.006l-1.103-0.012c-0.305-0.003-0.549-0.253-0.545-0.558
							c0.003-0.305,0.253-0.549,0.558-0.545l1.103,0.012c0.305,0.003,0.549,0.253,0.545,0.558
							C229.8,257.766,229.551,258.009,229.246,258.006z M225.937,257.969l-1.103-0.012c-0.305-0.003-0.549-0.253-0.545-0.558
							c0.003-0.305,0.253-0.549,0.558-0.545l1.103,0.012c0.305,0.003,0.549,0.253,0.545,0.558
							C226.492,257.728,226.242,257.972,225.937,257.969z M222.629,257.932l-1.103-0.012c-0.305-0.003-0.549-0.253-0.545-0.558
							c0.003-0.305,0.253-0.549,0.558-0.545l1.103,0.012c0.305,0.003,0.549,0.253,0.545,0.558
							C223.183,257.691,222.933,257.935,222.629,257.932z M219.32,257.895l-1.103-0.012c-0.305-0.003-0.549-0.253-0.545-0.558
							c0.003-0.305,0.253-0.549,0.558-0.545l1.103,0.012c0.305,0.003,0.549,0.253,0.545,0.558
							C219.874,257.654,219.625,257.898,219.32,257.895z M216.011,257.858l-1.103-0.012c-0.305-0.003-0.549-0.253-0.545-0.558
							c0.003-0.305,0.253-0.549,0.558-0.545l1.103,0.012c0.305,0.003,0.549,0.253,0.545,0.558
							C216.565,257.617,216.316,257.861,216.011,257.858z M212.702,257.821l-1.103-0.012c-0.305-0.003-0.549-0.253-0.545-0.558
							c0.003-0.305,0.253-0.549,0.558-0.545l1.103,0.012c0.305,0.003,0.549,0.253,0.545,0.558
							C213.257,257.58,213.007,257.824,212.702,257.821z"/>
					</g>
				</g>
				<g>
					<path style="fill:#3B4D7C;" d="M278.324,300.052l17.622-4.853c1.1-0.303,2.239,0.335,2.555,1.431l7.953,27.542
						c0.722,2.501-0.274,5.164-2.44,6.607c-2.408,1.604-6.122,3.324-11.312,3.734c-4.431,0.35-8.462-2.587-9.546-6.897l-6.3-25.047
						C276.58,301.471,277.232,300.353,278.324,300.052z"/>
					<path style="fill:#2D3C66;" d="M304.625,330.316c-0.193,0.167-0.395,0.313-0.609,0.459c-2.412,1.604-6.128,3.331-11.312,3.74
						c-0.276,0.018-0.551,0.026-0.816,0.023c-4.099-0.046-7.711-2.883-8.735-6.919l-6.297-25.047
						c-0.274-1.105,0.374-2.22,1.469-2.515l16.925-4.662c-0.183-0.691-0.366-1.37-0.539-2.05l-16.947,4.662
						c-2.189,0.6-3.517,2.884-2.959,5.083l6.297,25.047c1.247,4.961,5.667,8.463,10.762,8.52c0.328,0.004,0.667-0.003,1.007-0.031
						c5.809-0.454,9.899-2.474,12.322-4.078c0.011-0.01,0.021-0.01,0.032-0.021C305.021,331.793,304.828,331.06,304.625,330.316z"/>
					<g>
						<path style="fill:#4E6191;" d="M279.049,304.175c-0.232-0.003-0.442-0.157-0.506-0.391c-0.076-0.283,0.09-0.574,0.372-0.651
							l1.022-0.277c0.287-0.073,0.574,0.091,0.651,0.372c0.077,0.283-0.09,0.574-0.372,0.651l-1.022,0.277
							C279.145,304.17,279.097,304.176,279.049,304.175z M282.115,303.342c-0.231-0.003-0.442-0.157-0.506-0.391
							c-0.077-0.282,0.09-0.573,0.372-0.651l1.023-0.278c0.283-0.076,0.574,0.09,0.651,0.372c0.077,0.282-0.09,0.573-0.372,0.651
							l-1.023,0.278C282.211,303.337,282.163,303.343,282.115,303.342z M285.182,302.51c-0.231-0.003-0.441-0.157-0.505-0.39
							c-0.077-0.282,0.089-0.573,0.371-0.65l1.022-0.278c0.284-0.082,0.573,0.09,0.65,0.371c0.077,0.282-0.089,0.573-0.371,0.65
							l-1.022,0.278C285.278,302.505,285.23,302.51,285.182,302.51z M288.248,301.677c-0.231-0.003-0.441-0.157-0.505-0.39
							c-0.077-0.282,0.089-0.573,0.371-0.65l1.022-0.278c0.285-0.083,0.573,0.089,0.65,0.371c0.078,0.282-0.089,0.573-0.371,0.649
							l-1.022,0.278C288.344,301.672,288.296,301.678,288.248,301.677z M291.315,300.844c-0.232-0.003-0.442-0.157-0.506-0.391
							c-0.076-0.283,0.09-0.574,0.372-0.651l1.022-0.277c0.287-0.075,0.574,0.091,0.651,0.372c0.077,0.283-0.09,0.574-0.372,0.651
							l-1.022,0.277C291.411,300.839,291.362,300.845,291.315,300.844z M294.381,300.012c-0.232-0.003-0.442-0.157-0.506-0.391
							c-0.077-0.283,0.09-0.574,0.372-0.651l1.022-0.277c0.287-0.073,0.574,0.091,0.651,0.372c0.076,0.283-0.09,0.574-0.372,0.651
							l-1.022,0.277C294.477,300.006,294.428,300.012,294.381,300.012z M297.473,299.171c-0.233-0.003-0.451-0.153-0.515-0.385
							c-0.078-0.282,0.074-0.57,0.356-0.647l0.029-0.008c0.285-0.082,0.574,0.089,0.651,0.37c0.078,0.282-0.088,0.574-0.37,0.651
							C297.573,299.166,297.522,299.172,297.473,299.171z"/>
					</g>
				</g>
				<g>
					<path style="fill:#4E6294;" d="M238.02,369.249c-0.541,5.777-0.978,10.687-1.403,13.648c0,0-28.79,4.826-47.161-8.122
						c0,0,0.033-5.017,0.441-13.962C197.319,364.931,213.945,371.988,238.02,369.249z"/>
					<g>
						<path style="fill:#3B1010;" d="M189.897,360.812c6.267,3.478,19.1,9.052,37.438,9.052c3.377,0,6.941-0.189,10.685-0.615
							c-0.541,5.777-0.978,10.687-1.403,13.648c0,0-5.253,0.88-12.698,0.88c-9.992,0-23.936-1.583-34.462-9.002
							C189.457,374.775,189.49,369.758,189.897,360.812 M238.02,369.249h0.005 M189.897,358.812c-0.336,0-0.672,0.085-0.975,0.254
							c-0.604,0.338-0.991,0.964-1.023,1.655c-0.404,8.882-0.442,13.99-0.443,14.04c-0.004,0.655,0.312,1.271,0.848,1.648
							c10.985,7.742,25.43,9.368,35.614,9.368c7.526,0,12.808-0.871,13.029-0.908c0.859-0.144,1.525-0.827,1.649-1.688
							c0.38-2.644,0.768-6.816,1.218-11.646l0.187-1.997c0.014-0.094,0.021-0.191,0.021-0.289c0-1.103-0.891-1.997-1.993-2
							c-0.003,0-0.006,0-0.009,0c-0.018,0-0.036,0-0.054,0.001c-0.068,0.002-0.135,0.007-0.201,0.015
							c-3.503,0.397-7.011,0.599-10.43,0.599c-17.933,0-30.545-5.514-36.467-8.8C190.566,358.896,190.232,358.812,189.897,358.812
							L189.897,358.812z"/>
					</g>
					
						<path style="opacity:0.15;fill:none;stroke:#FFFFFF;stroke-width:1.4168;stroke-linecap:round;stroke-linejoin:round;stroke-miterlimit:10;stroke-dasharray:0.9445,3.3059;" d="
						M191.946,364.821c0,0,19.942,10.499,43.683,7.206"/>
				</g>
				<g>
					<path style="fill:#4E6294;" d="M315.243,376.214c0,0-16.274,17.432-52.614,11.603c0,0-1.085-6.154-3.284-15.044
						c9.082,1.521,31.532,3.161,51.686-11.802C312.671,366.889,314.06,372.176,315.243,376.214z"/>
					<g>
						<path style="fill:#3B1010;" d="M311.032,360.971c1.639,5.918,3.028,11.205,4.212,15.243c0,0-11.948,12.796-38.22,12.796
							c-4.395,0-9.186-0.357-14.394-1.193c0,0-1.085-6.154-3.284-15.044c2.804,0.47,6.884,0.951,11.776,0.951
							C282.073,373.724,297.1,371.314,311.032,360.971 M311.032,358.971c-0.424,0-0.843,0.135-1.192,0.394
							c-13.758,10.215-28.649,12.359-38.718,12.359c-4.904,0-8.931-0.502-11.446-0.923c-0.11-0.018-0.221-0.027-0.331-0.027
							c-0.552,0-1.085,0.229-1.467,0.641c-0.458,0.494-0.636,1.185-0.474,1.839c2.155,8.712,3.245,14.85,3.256,14.911
							c0.148,0.839,0.812,1.492,1.653,1.627c5.039,0.808,9.988,1.218,14.711,1.218c26.832,0,39.17-12.882,39.682-13.431
							c0.482-0.517,0.656-1.249,0.458-1.927c-0.741-2.53-1.55-5.503-2.487-8.946c-0.539-1.983-1.111-4.083-1.716-6.269
							c-0.176-0.635-0.654-1.143-1.277-1.358C311.47,359.007,311.25,358.971,311.032,358.971L311.032,358.971z"/>
					</g>
					
						<path style="opacity:0.15;fill:none;stroke:#FFFFFF;stroke-width:1.4168;stroke-linecap:round;stroke-linejoin:round;stroke-miterlimit:10;stroke-dasharray:0.9445,3.3059;" d="
						M261.198,375.937c0,0,29.368,4.35,48.761-10.961"/>
				</g>
				<path style="fill:#3B1010;" d="M241.839,317.492c0,0,10.012,0.568,21.492-7.328c0.462-0.318,1.096-0.202,1.4,0.27l0,0
					c0.282,0.439,0.177,1.016-0.241,1.328c-2.482,1.856-11.117,7.595-22.779,7.436L241.839,317.492z"/>
				<g>
					<path style="fill:#3B1010;" d="M234.94,217.35c8.823,0,19.423,0.642,31.587,2.51c0,0-0.257,28.521,18.03,35.143
						c0,0,4.339,18.018,9.906,40.605l1.483-0.409c0.185-0.051,0.371-0.075,0.554-0.075c0.906,0,1.738,0.595,2.001,1.506
						l7.953,27.542c0.722,2.501-0.274,5.164-2.44,6.607c-0.211,0.14-0.444,0.282-0.675,0.423
						c4.632,18.312,9.074,35.357,11.908,45.007c0,0-11.946,12.8-38.222,12.8c-4.393,0-9.191-0.358-14.396-1.194
						c0,0-10.964-49.184-14.117-70.475c0,0-3.841,0.154-6.192,0.154c-0.168,0-0.329-0.001-0.48-0.003c0,0-3.473,53.195-5.225,65.407
						c0,0-5.25,0.88-12.697,0.88c-9.991,0-23.937-1.584-34.463-9.002c0,0,0.226-15.409,1.871-40.078
						c-3.419-0.765-5.74-3.969-5.367-7.474l2.954-27.77c0.133-1.246,1.185-2.174,2.415-2.174c0.07,0,0.141,0.003,0.211,0.009
						l2.859,0.247c2.267-22.998,5.562-49.478,10.347-77.088C204.743,220.449,215.552,217.35,234.94,217.35 M234.94,215.35
						c-19.445,0-30.295,3.047-30.748,3.176c-0.737,0.211-1.288,0.825-1.419,1.581c-4.133,23.842-7.553,49.155-10.172,75.267
						l-0.893-0.077c-0.129-0.011-0.257-0.017-0.383-0.017c-2.27,0-4.163,1.703-4.404,3.963l-2.954,27.77
						c-0.416,3.914,1.775,7.555,5.259,9.092c-1.538,23.551-1.771,38.491-1.773,38.643c-0.01,0.661,0.308,1.284,0.848,1.664
						c10.986,7.742,25.431,9.367,35.615,9.367c7.527,0,12.807-0.87,13.028-0.907c0.859-0.144,1.525-0.827,1.649-1.688
						c1.578-11,4.479-54.042,5.119-63.702c1.055-0.017,2.184-0.049,3.09-0.079c3.439,21.958,13.767,68.368,13.874,68.848
						c0.178,0.8,0.826,1.41,1.635,1.54c5.04,0.809,9.99,1.219,14.713,1.219c26.837,0,39.173-12.887,39.685-13.436
						c0.482-0.517,0.656-1.25,0.457-1.928c-2.44-8.31-6.322-22.962-11.541-43.564c2.556-1.998,3.659-5.322,2.751-8.464
						l-7.953-27.542c-0.502-1.738-2.115-2.951-3.923-2.951c-0.194,0-0.387,0.014-0.579,0.042c-5.272-21.411-9.378-38.456-9.42-38.63
						c-0.157-0.653-0.632-1.184-1.264-1.412c-16.762-6.069-16.713-32.974-16.711-33.245c0.009-0.994-0.714-1.844-1.696-1.995
						C255.885,216.203,245.155,215.35,234.94,215.35L234.94,215.35z"/>
				</g>
				<path style="fill:#3B4D7C;" d="M260.188,187.683c0,0-13.251,21.275-13.554,58.174c-0.012,1.492,1.119,2.752,2.603,2.903
					c2.618,0.268,7.071,0.409,12.721-0.624c1.354-0.248,2.343-1.424,2.367-2.801c0.147-8.304,1.483-36.912,12.71-52.305
					C277.036,193.03,270.053,188.723,260.188,187.683z"/>
				<g>
					<path style="fill:#3B1010;" d="M260.188,187.683c9.865,1.041,16.848,5.347,16.848,5.347
						c-11.227,15.393-12.563,44.001-12.71,52.305c-0.024,1.377-1.013,2.553-2.367,2.801c-3.397,0.621-6.36,0.817-8.753,0.817
						c-1.588,0-2.924-0.087-3.969-0.193c-1.484-0.152-2.616-1.412-2.603-2.903C246.937,208.958,260.188,187.683,260.188,187.683
						 M260.187,185.683c-0.685,0-1.33,0.353-1.697,0.943c-0.553,0.888-13.552,22.179-13.856,59.214
						c-0.021,2.54,1.871,4.651,4.4,4.909c1.322,0.135,2.726,0.204,4.172,0.204c2.96,0,6.026-0.286,9.112-0.85
						c2.281-0.417,3.966-2.407,4.008-4.733c0.146-8.238,1.466-36.273,12.326-51.162c0.328-0.45,0.454-1.017,0.347-1.564
						c-0.107-0.547-0.438-1.024-0.913-1.317c-0.301-0.186-7.488-4.557-17.689-5.633
						C260.327,185.686,260.257,185.683,260.187,185.683L260.187,185.683z"/>
				</g>
				<path style="fill:#3B4D7C;" d="M223.14,194.25c0,0-5.329,17.704-7.881,50.389c-0.092,1.182-1.054,2.109-2.239,2.141
					c-2.451,0.068-6.639,0.032-10.232-0.747c-1.179-0.256-1.986-1.338-1.843-2.536c0.787-6.596,3.582-28.299,7.877-43.014
					C208.822,200.485,214.896,196.691,223.14,194.25z"/>
				<g>
					<path style="fill:#3B1010;" d="M223.14,194.25c0,0-5.329,17.704-7.881,50.389c-0.092,1.182-1.054,2.109-2.239,2.141
						c-0.494,0.014-1.059,0.023-1.675,0.023c-2.44,0-5.688-0.148-8.557-0.77c-1.179-0.256-1.986-1.338-1.843-2.536
						c0.787-6.596,3.582-28.299,7.877-43.014C208.822,200.485,214.896,196.691,223.14,194.25 M223.139,192.25
						c-0.189,0-0.38,0.027-0.567,0.082c-8.408,2.49-14.552,6.295-14.809,6.456c-0.417,0.26-0.723,0.664-0.861,1.136
						c-4.348,14.898-7.179,36.937-7.943,43.337c-0.265,2.217,1.199,4.249,3.405,4.728c3.107,0.674,6.599,0.815,8.981,0.815
						c0.637,0,1.22-0.01,1.73-0.024c2.209-0.061,4.005-1.774,4.178-3.985c2.503-32.045,7.75-49.794,7.802-49.969
						c0.211-0.704,0.02-1.467-0.499-1.987C224.176,192.457,223.664,192.25,223.139,192.25L223.139,192.25z M223.14,196.25h0.005
						H223.14L223.14,196.25z"/>
				</g>
				<path style="fill:#6578A8;" d="M256.383,240.5l3.521-3.69c0.261-0.273,0.251-0.706-0.023-0.967s-0.707-0.251-0.967,0.023
					l-3.521,3.69l-3.69-3.521c-0.273-0.261-0.706-0.251-0.967,0.023c-0.261,0.273-0.251,0.706,0.023,0.967l3.69,3.521l-3.521,3.69
					c-0.261,0.273-0.251,0.706,0.023,0.967c0.273,0.261,0.706,0.251,0.967-0.023l3.521-3.69l3.69,3.521
					c0.273,0.261,0.707,0.251,0.967-0.023c0.261-0.273,0.251-0.707-0.023-0.967L256.383,240.5z"/>
				<path style="fill:#6578A8;" d="M209.542,239.439l3.567-3.1c0.264-0.23,0.292-0.63,0.063-0.894
					c-0.23-0.264-0.63-0.292-0.894-0.063l-3.567,3.1l-3.1-3.568c-0.23-0.264-0.63-0.292-0.894-0.063
					c-0.264,0.23-0.292,0.63-0.063,0.895l3.1,3.567l-3.567,3.1c-0.264,0.23-0.292,0.63-0.063,0.894
					c0.23,0.264,0.63,0.292,0.894,0.063l3.567-3.1l3.1,3.568c0.23,0.264,0.63,0.292,0.894,0.063c0.264-0.23,0.292-0.63,0.063-0.894
					L209.542,239.439z"/>
			</g>
			<g>
				<g>
					<path style="fill:#FFA200;" d="M282.628,194.804l3.692,1.284c5.057,1.759,9.36,5.194,12.195,9.735l19.709,31.569
						c0,0-11.434,14.432-30.787,21.879l-5.05-7.302c-8.771-12.681-11.79-28.658-7.498-43.468
						C276.429,203.188,278.856,198.253,282.628,194.804z"/>
					<g>
						<path style="fill:#3B1010;" d="M287.849,260.923l-1.632,0.381l-7.595-11.979c-0.276-0.434-0.203-1.003,0.174-1.354l0,0
							c0.49-0.457,1.275-0.356,1.633,0.211l7.01,11.089L287.849,260.923z"/>
					</g>
				</g>
				
					<path style="fill:none;stroke:#FF8300;stroke-width:1.5887;stroke-linecap:round;stroke-linejoin:round;stroke-miterlimit:10;" d="
					M279.239,198.788c0,0-12.059,17.422-2.749,43.035"/>
				
					<path style="opacity:0.2;fill:none;stroke:#FFFFFF;stroke-width:1.4168;stroke-linecap:round;stroke-linejoin:round;stroke-miterlimit:10;stroke-dasharray:0.9445,3.3059;" d="
					M286.868,255.125c0,0,15.119-4.646,27.928-19.489"/>
			</g>
		</g>
		<g>
			<path style="fill:#F0BCA3;" d="M257.659,186.501c-12.351,13.303-33.293,7.762-33.293,7.762l-0.841-8.144l-1.107-10.838
				l32.39-7.539l1.845,12.138L257.659,186.501z"/>
			<g>
				<path style="fill:#3B1010;" d="M254.808,167.742l2.846,18.763c-6.735,7.256-16.027,8.904-23.084,8.904
					c-5.88,0-10.208-1.145-10.208-1.145l-1.94-18.979L254.808,167.742 M254.808,165.742c-0.152,0-0.304,0.017-0.454,0.052
					l-32.386,7.544c-0.98,0.228-1.638,1.15-1.536,2.151l1.94,18.979c0.085,0.828,0.673,1.517,1.478,1.73
					c0.187,0.049,4.65,1.212,10.72,1.212c7.158,0,17.228-1.656,24.549-9.544c0.415-0.447,0.603-1.058,0.512-1.661l-2.846-18.763
					c-0.084-0.551-0.394-1.043-0.855-1.356C255.596,165.86,255.204,165.742,254.808,165.742L254.808,165.742z"/>
			</g>
			<path style="fill:#E29781;" d="M256.813,180.936c-12.806,6.182-24.579,6.01-33.288,5.183l-1.107-10.838l32.39-7.539
				L256.813,180.936z"/>
		</g>
		<g>
			<path style="fill:#76182C;" d="M174.072,127.621c0,0,0.179-2.634,1.15-6.779c5.69-24.295,25.52-42.031,49.308-45.259
				c11.871-1.611,27.184-0.945,44.133,6.5c0,0,14.456,6,25.713,21.264c9.693,13.144,11.54,31.097,3.829,45.692
				c-2.2,4.163-5.204,8.162-9.307,11.423L174.072,127.621z"/>
			<path style="fill:#5E1323;" d="M302.962,128.158l-0.783-0.081c-0.075-0.005-7.782-0.763-13.29,0.355
				c-0.85,0.224-3.316,0.751-7.227,0.729c-0.854-0.002-1.705-0.031-2.555-0.089c-6.415-0.436-12.792-2.407-18.588-5.756
				c-11.852-6.856-52.684-27.67-80.686-7.815l-2.612,1.849l-0.914-0.494c6.82-22.231,25.759-38.226,48.219-41.269
				c11.874-1.614,27.187-0.949,44.131,6.496c0,0,14.462,6.001,25.716,21.26C299.726,110.601,302.688,119.34,302.962,128.158z"/>
			<g>
				<path style="fill:#3B1010;" d="M235.171,74.864c9.855,0,21.247,1.841,33.491,7.219c0,0,14.456,6,25.713,21.264
					c9.412,12.763,11.425,30.059,4.474,44.413c0.838,3.144,0.54,6.597-1.254,9.684c-2.44,4.198-7.604,7.855-18.18,7.855
					c-2.858,0-6.111-0.267-9.811-0.863c-0.903,1.244-1.887,2.433-2.969,3.542c-10.673,10.947-26.344,12.957-36.419,12.957
					c-5.851,0-9.816-0.678-9.816-0.678s-30.509-4.027-41.047-26.495c-0.662-1.411-1.201-2.866-1.647-4.346
					c-11.301-2.876-15.442-8.013-16.549-12.832c-1.776-7.73,4.394-15.023,12.229-15.022c0.217,0,0.436,0.006,0.655,0.017
					c0.337,0.017,0.667,0.048,0.993,0.09c0.059-0.269,0.121-0.544,0.188-0.827c5.69-24.295,25.52-42.032,49.308-45.259
					C227.824,75.135,231.384,74.864,235.171,74.864 M235.171,72.864c-3.636,0-7.307,0.248-10.911,0.737
					c-12.145,1.648-23.39,6.915-32.519,15.233c-9.006,8.206-15.311,18.817-18.269,30.729c-0.029,0-0.058,0-0.087,0
					c-0.001,0-0.001,0-0.002,0c-4.455,0-8.616,2.017-11.417,5.534c-2.714,3.407-3.719,7.758-2.759,11.936
					c1.522,6.622,7.214,11.34,16.924,14.035c0.416,1.246,0.889,2.434,1.41,3.545c4.521,9.638,13.339,17.475,25.501,22.663
					c8.865,3.781,16.388,4.868,17.057,4.96c0.451,0.075,4.397,0.701,10.115,0.701c20.356,0,31.819-7.374,37.851-13.561
					c0.832-0.853,1.641-1.785,2.416-2.78c3.209,0.468,6.208,0.704,8.932,0.704c9.796,0,16.495-2.977,19.909-8.85
					c1.84-3.166,2.411-6.857,1.635-10.471c6.764-14.605,4.842-32.509-4.974-45.819c-11.454-15.532-25.945-21.671-26.556-21.924
					C258.306,75.349,246.768,72.864,235.171,72.864L235.171,72.864z"/>
			</g>
			<g>
				<g>
					<path style="fill:#F0BCA3;" d="M189.792,135.733c0,0-4.953-13.595-15.751-14.153c-8.14-0.421-14.709,7.061-12.884,15.005
						c1.381,6.011,7.471,12.52,26.307,14.514L189.792,135.733z"/>
					<g>
						<path style="fill:#3B1010;" d="M185.416,137.557c0,0-3.81-7.407-9.629-9.537c-6.185-2.264-11.709,4.936-7.96,10.558
							c2.073,3.107,6.681,6.055,16.358,7.103L185.416,137.557z"/>
					</g>
					<path style="fill:#E29781;" d="M186.31,138.361c0,0-3.74-6.849-9.387-8.853c-6.002-2.13-11.295,4.461-7.626,9.667
						c2.028,2.877,6.509,5.625,15.88,6.66L186.31,138.361z"/>
					<path style="fill:#D1826B;" d="M186.312,138.363l-1.132,7.47c-5.821-0.639-9.749-1.946-12.381-3.525
						c-0.288-0.312-0.541-0.626-0.761-0.944c-3.664-5.209,1.628-11.798,7.625-9.667c0.008,0.003,0.017,0.006,0.025,0.009
						c1.454,0.511,2.724,1.453,3.736,2.615C185.26,136.43,186.312,138.363,186.312,138.363z"/>
				</g>
			</g>
			<g>
				<g>
					<path style="fill:#F0BCA3;" d="M268.905,147.602c0,0,9.272-12.195,20.367-9.372c8.364,2.127,12.66,11.754,8.322,19.215
						c-3.282,5.645-11.482,10.317-31.154,6.427L268.905,147.602z"/>
					<g>
						<path style="fill:#3B1010;" d="M272.758,150.819c0,0,6.175-6.295,12.728-6.624c6.965-0.35,10.293,8.664,4.738,13.173
							c-3.07,2.492-8.655,4.027-18.769,2.052L272.758,150.819z"/>
					</g>
					<path style="fill:#E29781;" d="M271.602,151.352c0,0,5.93-5.753,12.268-6.009c6.737-0.272,10.022,8.054,4.68,12.167
						c-2.953,2.273-8.346,3.647-18.147,1.754L271.602,151.352z"/>
					<path style="fill:#D1826B;" d="M271.6,151.353l-1.198,7.909c6.087,1.179,10.469,1.09,13.626,0.319
						c0.389-0.225,0.744-0.463,1.066-0.716c5.339-4.118,2.053-12.441-4.679-12.167c-0.01,0-0.019,0.001-0.029,0.001
						c-1.63,0.061-3.21,0.615-4.598,1.473C273.269,149.729,271.6,151.353,271.6,151.353z"/>
				</g>
			</g>
			<g>
				<path style="fill:#F0BCA3;" d="M233.064,96.676c-35.425-5.253-46.528,10.873-52.81,25.609c-4.327,10.151-5.51,21.65-0.9,31.478
					c10.538,22.468,41.047,26.494,41.047,26.494s29.363,5.025,46.234-12.279c7.857-8.059,11.042-19.981,8.92-31.253
					C272.911,122.676,263.805,101.235,233.064,96.676z"/>
				<path style="fill:#E29781;" d="M273.3,128.255c-4.421-0.938-8.745-2.611-12.78-4.939c-11.049-6.389-47.262-24.9-74.809-11.319
					c7.358-10.824,20.217-19.342,47.357-15.322C258.071,100.389,268.76,115.262,273.3,128.255z"/>
			</g>
			<g>
				<path style="fill:#E29781;" d="M192.354,148.341c-0.344,2.751-2.853,4.702-5.604,4.358c-2.751-0.344-4.702-2.853-4.358-5.604
					c0.344-2.751,2.853-4.702,5.604-4.358C190.747,143.082,192.698,145.59,192.354,148.341z"/>
				<path style="fill:#E29781;" d="M246.88,153.363c-0.492,3.936,2.3,7.526,6.236,8.019c3.936,0.492,7.526-2.3,8.019-6.236
					c0.492-3.936-2.3-7.527-6.236-8.019C250.962,146.635,247.372,149.427,246.88,153.363z"/>
				<g>
					
						<ellipse transform="matrix(0.1241 -0.9923 0.9923 0.1241 38.7241 314.3472)" style="fill:#76182C;" cx="197.417" cy="135.239" rx="10.129" ry="8.7"/>
					<path style="fill:#FFFFFF;" d="M203.261,131.927c-0.224,1.79-1.857,3.06-3.647,2.836c-1.79-0.224-3.06-1.857-2.836-3.647
						c0.224-1.79,1.857-3.06,3.647-2.836C202.216,128.504,203.485,130.137,203.261,131.927z"/>
				</g>
				<path style="fill:#76182C;" d="M202.278,116.465c0.337,2.249-1.864,4.442-4.915,4.899c-3.051,0.457-5.798-0.996-6.135-3.244
					c-0.337-2.249,1.864-4.442,4.915-4.899C199.194,112.764,201.941,114.216,202.278,116.465z"/>
				<path style="fill:#76182C;" d="M245.13,118.56c-0.893,2.378,1.04,5.303,4.317,6.534c3.277,1.231,6.658,0.301,7.551-2.076
					c0.893-2.378-1.04-5.303-4.317-6.534C249.403,115.252,246.023,116.182,245.13,118.56z"/>
				<g>
					<path style="fill:#76182C;" d="M222.417,143.455c-0.42,3.358-3.691,5.714-7.307,5.262c-3.615-0.452-6.206-3.541-5.786-6.9
						s3.691-5.714,7.307-5.262C220.246,137.008,222.837,140.097,222.417,143.455z"/>
					<path style="fill:#D1826B;" d="M221.641,144.885c-0.382,3.057-3.36,5.201-6.651,4.789c-3.29-0.411-5.648-3.223-5.266-6.28
						c0.382-3.057,3.36-5.201,6.65-4.79C219.665,139.017,222.023,141.828,221.641,144.885z"/>
					<path style="fill:#E29781;" d="M219.819,143.6c-0.232,1.857-2.214,3.137-4.427,2.861c-2.213-0.277-3.818-2.006-3.586-3.863
						c0.232-1.857,2.214-3.138,4.427-2.861C218.446,140.014,220.051,141.744,219.819,143.6z"/>
				</g>
				<path style="fill:#76182C;" d="M231.937,143.727c0,0,2.92-7.465,10.321-8.636c3.159-0.5,6.416,0.32,9.027,2.165
					c2.122,1.5,4.456,3.997,5.307,7.989l5.928-1.623c0,0-2.619-9.997-12.76-12.399c-3.768-0.893-7.791-0.541-11.099,1.473
					C235.728,134.483,232.852,137.751,231.937,143.727z"/>
				<g>
					<path style="fill:#76182C;" d="M204.012,155.548c0.616-1.164,1.734-2.283,3.766-2.611c1.056-0.171,2.141-0.008,3.122,0.419
						c2.025,0.883,7.089,2.374,12.829-1.357c1.199-0.779,2.632-1.173,4.058-1.069c1.186,0.087,2.523,0.52,3.718,1.708
						c2.323,2.309,2.544,5.981,0.791,8.748c-1.12,1.768-2.872,3.839-5.534,5.494c-5.925,3.683-13.657,3.331-18.956-1.208
						c-1.49-1.276-2.861-2.927-3.825-5.055C203.249,159.001,203.183,157.117,204.012,155.548z"/>
					<g>
						<path style="fill:#76182C;" d="M227.333,150.914c0.151,0,0.303,0.006,0.454,0.017c1.186,0.087,2.523,0.52,3.718,1.708
							c2.323,2.309,2.544,5.981,0.791,8.748c-1.12,1.768-2.872,3.839-5.534,5.494c-2.681,1.667-5.733,2.507-8.761,2.507
							c-3.664,0-7.294-1.23-10.195-3.714c-1.49-1.276-2.861-2.927-3.825-5.055c-0.732-1.616-0.798-3.501,0.031-5.07
							c0.616-1.164,1.734-2.283,3.766-2.611c0.278-0.045,0.558-0.067,0.838-0.067c0.782,0,1.561,0.171,2.284,0.486
							c1.027,0.448,2.836,1.052,5.119,1.052c2.218,0,4.882-0.57,7.71-2.409C224.8,151.303,226.06,150.914,227.333,150.914
							 M227.333,149.568c-1.526,0-3.026,0.45-4.337,1.303c-2.237,1.454-4.585,2.191-6.977,2.191c-2.004,0-3.597-0.511-4.581-0.94
							c-0.897-0.391-1.873-0.598-2.822-0.598c-0.354,0-0.708,0.028-1.053,0.084c-2.14,0.346-3.779,1.491-4.742,3.311
							c-0.993,1.877-1.017,4.157-0.067,6.254c0.955,2.109,2.36,3.967,4.176,5.523c3.041,2.604,6.972,4.038,11.071,4.038
							c3.344,0,6.619-0.937,9.471-2.71c2.422-1.505,4.427-3.496,5.961-5.917c2.129-3.36,1.717-7.743-0.979-10.423
							c-1.269-1.261-2.806-1.967-4.568-2.096C227.701,149.575,227.517,149.568,227.333,149.568L227.333,149.568z"/>
					</g>
					<path style="fill:#FFFFFF;" d="M230.513,151.837c-1.686,4.481-7.174,7.775-13.698,7.817c-5.151,0.035-9.669-1.962-12.209-4.998
						c0.666-0.809,1.674-1.477,3.172-1.718c1.058-0.171,2.144-0.014,3.119,0.421c2.025,0.882,7.088,2.373,12.833-1.364
						c1.199-0.772,2.633-1.169,4.057-1.064C228.653,150.999,229.599,151.248,230.513,151.837z"/>
					<path style="fill:#F24842;" d="M231.503,162.535c-1.105,1.474-2.642,3.035-4.74,4.349c-5.305,3.298-12.073,3.357-17.224,0.069
						c1.203-1.81,4.172-4.848,9.685-2.582C219.224,164.372,222.845,157.636,231.503,162.535z"/>
				</g>
			</g>
			<g>
				<path style="fill:#76182C;" d="M209.385,95.382c-2.979,0.454-5.583,2.795-6.351,5.708c-0.768,2.913,0.344,6.234,2.713,8.097
					c2.368,1.863,5.857,2.162,8.508,0.73c-1.567,1.637-1.615,4.464-0.577,6.478c1.038,2.015,3.248,3.316,5.51,3.442
					c2.263,0.125,4.523-0.856,6.126-2.458c1.604-1.602,2.573-3.779,2.901-6.021c2.016,2.76,5.727,3.961,8.914,2.727
					c3.187-1.234,5.326-4.747,4.958-8.145L209.385,95.382z"/>
				<g>
					<path style="fill:#3B1010;" d="M209.385,95.382l32.703,10.559c0.368,3.397-1.771,6.911-4.958,8.145
						c-0.848,0.328-1.733,0.484-2.613,0.484c-2.428,0-4.821-1.186-6.3-3.211c-0.329,2.243-1.298,4.419-2.901,6.021
						c-1.512,1.51-3.606,2.468-5.737,2.468c-0.13,0-0.26-0.004-0.389-0.011c-2.263-0.125-4.472-1.427-5.51-3.442
						c-1.038-2.015-0.99-4.841,0.577-6.478c-1.119,0.605-2.388,0.901-3.658,0.901c-1.739,0-3.482-0.555-4.85-1.631
						c-2.368-1.863-3.48-5.183-2.713-8.097C203.802,98.176,206.406,95.836,209.385,95.382 M209.385,93.382
						c-0.101,0-0.201,0.008-0.301,0.023c-3.737,0.569-7.02,3.52-7.983,7.176c-0.963,3.656,0.439,7.841,3.41,10.178
						c1.688,1.328,3.849,2.059,6.086,2.059c0.135,0,0.271-0.003,0.406-0.008c-0.116,1.599,0.236,3.218,0.898,4.502
						c1.329,2.579,4.146,4.355,7.178,4.523c0.167,0.009,0.334,0.014,0.5,0.014c2.601,0,5.207-1.113,7.15-3.053
						c1.052-1.051,1.907-2.338,2.52-3.772c1.558,0.995,3.385,1.547,5.268,1.547c1.152,0,2.274-0.208,3.335-0.619
						c4.012-1.553,6.688-5.949,6.225-10.225c-0.085-0.785-0.623-1.446-1.374-1.688L210,93.479
						C209.8,93.414,209.593,93.382,209.385,93.382L209.385,93.382z"/>
				</g>
				<path style="fill:#5E1323;" d="M238.79,113.17c-10.31-3.74-22.66-6.71-34.75-5.9c-1.14-1.81-1.55-4.1-1.01-6.18
					c0.77-2.91,3.38-5.25,6.36-5.71l32.7,10.56C242.39,108.71,241.03,111.55,238.79,113.17z"/>
			</g>
			<g>
				<g>
					<path style="fill:#3B4D7C;" d="M185.838,106.258c0,0,1.723-11.63,5.645-24.717c2.839-9.473,9.91-17.108,19.161-20.6
						c6.051-2.284,13.676-4.691,22.084-6.254c6.812-1.267,13.823-1.096,20.549,0.567c12.628,3.123,32.36,11.846,48.393,36.142
						c3.593,5.445,5.007,12.039,3.861,18.461c-0.671,3.758-1.598,8.318-2.824,13.105c0,0-8.603-0.88-15.006,0.46
						c0,0-24.856-1.637-46.402-19.517c-0.268-0.222-0.571-0.397-0.899-0.515C236.252,101.896,207.492,92.351,185.838,106.258z"/>
					<path style="fill:#2D3C66;" d="M305.527,109.859c-0.665,3.756-1.589,8.314-2.816,13.097c0,0-8.609-0.871-15.011,0.466
						c-0.306-0.021-24.993-1.748-46.399-19.513c-0.272-0.223-0.577-0.398-0.907-0.523c-1.44-0.518-5.857-2.017-11.927-3.156
						c4.669-20.328,9.947-36.332,13.62-46.368c3.759,0.02,7.518,0.49,11.186,1.395c12.636,3.122,32.361,11.839,48.395,36.134
						C305.264,96.84,306.681,103.431,305.527,109.859z"/>
					<path style="fill:#314370;" d="M305.532,109.859c-0.678,3.753-1.597,8.318-2.827,13.103c0,0-8.602-0.88-15.004,0.457
						c0,0-24.852-1.634-46.408-19.511c-0.262-0.225-0.568-0.398-0.895-0.519c-4.146-1.497-32.903-11.035-54.56,2.874
						c0,0,0.94-6.366,3.028-14.986c63.087,16.086,93.58-2.692,103.826-11.58c3.076,3.434,6.083,7.313,8.978,11.699
						C305.265,96.838,306.674,103.432,305.532,109.859z"/>
					<path style="fill:#29365C;" d="M305.532,109.859c-0.776,4.341-1.714,8.766-2.827,13.103
						c-5.199-0.798-10.726,0.231-16.823,0.268c-11.29-1.513-22.393-5.305-32.406-10.945c-8.404-5.073-14.487-11.148-25.011-12.058
						c0.212-0.93,0.434-1.849,0.645-2.757c36.411,1.382,55.817-11.037,63.582-17.772c3.189,3.544,6.278,7.617,8.978,11.688l0,0.011
						C305.259,96.826,306.681,103.435,305.532,109.859z"/>
				</g>
				<g>
					<path style="fill:#FF8300;" d="M287.701,123.421c0,0-2.101,0.611-6.018,0.595c-6.538-0.028-12.928-1.885-18.587-5.159
						c-14.186-8.205-56.094-28.93-86.239-7.558c0,0-7.469-4.026-11.5-14.853c-5.221-14.022,2.342-29.396,16.488-34.269
						c4.235-1.459,9.178-2.488,14.809-2.612c14.428-0.319,27.85,7.261,35.662,19.395
						C242.661,95.026,262.761,120.493,287.701,123.421z"/>
					<g>
						<path style="fill:#3B1010;" d="M270.471,116.51L270.471,116.51c-0.265,0.535-0.929,0.745-1.447,0.449
							c-16.212-9.272-29.101-26.182-36.709-38.003c-5.552-8.614-13.934-14.942-23.496-17.763l1.43-1.296
							c0,0,16.017,4.479,25.638,20.613c0,0,14.021,23.468,34.153,34.64C270.525,115.419,270.717,116.013,270.471,116.51z"/>
					</g>
					<path style="fill:#EC7400;" d="M287.701,123.416c0,0-2.106,0.617-6.017,0.595c-6.538-0.022-12.931-1.882-18.591-5.156
						c-14.181-8.206-56.088-28.933-86.239-7.555c0,0-5.62-3.027-9.73-10.896c33.925,8.361,57.391-11.101,60.86-27.098
						c1.589,1.75,3.036,3.64,4.335,5.651C242.664,95.027,262.766,120.494,287.701,123.416z"/>
				</g>
				<g>
					<g>
						<path style="fill:#3B1010;" d="M242.088,53.862c0.085,0,0.17,0.008,0.255,0.009c0.671,0.008,1.34,0.035,2.01,0.071
							c0.265,0.014,0.531,0.024,0.796,0.043c0.673,0.047,1.344,0.115,2.014,0.191c0.232,0.026,0.464,0.045,0.695,0.075
							c0.824,0.105,1.645,0.233,2.463,0.382c0.07,0.013,0.14,0.021,0.21,0.034c0.919,0.171,1.835,0.363,2.745,0.588
							c5.712,1.412,12.879,3.978,20.497,8.605c9.225,5.6,19.113,14.226,27.894,27.533c2.614,3.962,4.07,8.53,4.23,13.198
							c0.061,1.751-0.055,3.515-0.368,5.267c-0.136,0.762-0.285,1.564-0.443,2.387c-0.615,3.235-1.398,6.899-2.376,10.714
							c0,0-0.004,0-0.004,0c0,0.002-0.001,0.003-0.001,0.005c0,0-2.29-0.232-5.38-0.275c-0.305-0.004-0.617-0.006-0.936-0.006
							c-2.724,0-5.912,0.163-8.689,0.744c-0.001,0-0.005-0.001-0.006-0.001c-0.03,0.009-2.067,0.594-5.855,0.594
							c-0.052,0-0.105,0-0.158,0c-6.538-0.028-12.928-1.885-18.587-5.159c-9.641-5.576-32.081-16.933-54.934-16.933
							c-10.776,0-21.645,2.526-31.305,9.375c0,0-7.469-4.026-11.5-14.853c-5.221-14.022,2.342-29.396,16.488-34.269
							c4.235-1.459,9.178-2.488,14.809-2.612c0.29-0.006,0.579-0.01,0.868-0.01c4.122,0,8.152,0.648,11.985,1.855
							c0.377-0.16,0.753-0.323,1.138-0.468c6.051-2.284,13.676-4.691,22.084-6.254c2.971-0.553,5.979-0.817,8.985-0.817
							c0.124,0,0.248,0,0.371,0.001C242.086,53.868,242.087,53.865,242.088,53.862 M242.088,51.862
							c-0.061,0-0.122,0.003-0.182,0.008l-0.192-0.001c-3.17,0-6.316,0.286-9.351,0.851c-7.33,1.363-14.875,3.5-22.425,6.35
							c-0.182,0.069-0.362,0.141-0.541,0.215c-3.882-1.148-7.874-1.73-11.876-1.73c-0.304,0-0.607,0.003-0.912,0.01
							c-5.33,0.118-10.517,1.033-15.417,2.721c-7.473,2.574-13.432,7.893-16.778,14.978c-3.275,6.932-3.606,14.703-0.934,21.88
							c4.246,11.402,12.094,15.737,12.426,15.916c0.297,0.16,0.624,0.24,0.949,0.24c0.407,0,0.812-0.124,1.157-0.368
							c8.429-5.976,18.572-9.006,30.148-9.006c22.673,0,45.27,11.654,53.932,16.664c6.089,3.522,12.86,5.399,19.58,5.427l0.167,0
							c3.607,0,5.75-0.497,6.295-0.641c2.223-0.462,5-0.696,8.255-0.696c0.31,0,0.613,0.002,0.909,0.006
							c2.955,0.041,5.184,0.263,5.206,0.265c0.068,0.007,0.135,0.01,0.202,0.01c0.47,0,0.914-0.166,1.264-0.451
							c0.324-0.263,0.568-0.627,0.678-1.057c0.88-3.434,1.689-7.08,2.404-10.837c0.159-0.829,0.31-1.64,0.447-2.41
							c0.33-1.85,0.464-3.764,0.398-5.687c-0.173-5.051-1.749-9.972-4.559-14.23c-7.908-11.983-17.506-21.451-28.526-28.141
							c-6.691-4.063-13.775-7.036-21.055-8.837c-0.897-0.222-1.832-0.422-2.86-0.613c-0.056-0.011-0.116-0.02-0.175-0.029
							c-0.915-0.164-1.778-0.298-2.61-0.404c-0.155-0.02-0.311-0.036-0.468-0.051l-0.256-0.027
							c-0.819-0.092-1.486-0.156-2.098-0.199c-0.193-0.014-0.385-0.023-0.577-0.032l-0.253-0.013
							c-0.764-0.041-1.449-0.065-2.092-0.073l-0.052-0.002c-0.073-0.004-0.145-0.006-0.217-0.007
							C242.096,51.862,242.092,51.862,242.088,51.862L242.088,51.862z"/>
					</g>
				</g>
				<path style="fill:#FF9900;" d="M235.649,83.94c-8.474-11.702-18.017-16.647-18.017-16.647
					c-9.114-5.188-18.192-5.926-24.676-5.485c-6.701,0.455-13.171,2.896-18.367,7.149c-18.754,15.332-2.946,37.72-2.278,38.657
					c-2.307-2.361-5.025-5.989-6.953-11.167c-5.221-14.024,2.344-29.402,16.484-34.268c4.237-1.467,9.185-2.491,14.813-2.615
					c14.432-0.315,27.849,7.257,35.665,19.393C233.338,80.537,234.444,82.207,235.649,83.94z"/>
				
					<path style="opacity:0.1;fill:none;stroke:#FFFFFF;stroke-width:1.4168;stroke-linecap:round;stroke-linejoin:round;stroke-miterlimit:10;stroke-dasharray:0.9445,3.3059;" d="
					M295.033,86.798c0,0-0.166,16.741-6.15,34.37"/>
			</g>
		</g>
	</g>
	<path style="fill:#3B1010;" d="M99.619,186.583l12.121,5.348l0.329-0.66c1.535-3.132,3.34-6,5.22-8.272l0.413-0.482l-5.673-6.847
		c-0.24-0.276-0.355-0.644-0.312-1.032c0.034-0.376,0.207-0.728,0.495-0.957c0.298-0.241,0.666-0.357,1.042-0.323
		c0.377,0.034,0.718,0.219,0.969,0.505l5.445,6.58l0.584-0.491c1.064-0.913,2.098-1.589,3.092-2.016
		c0.345-0.158,0.73-0.157,1.08-0.025c0.36,0.141,0.632,0.405,0.789,0.75c0.159,0.366,0.16,0.794-0.003,1.156
		c-0.143,0.318-0.397,0.578-0.732,0.724c-0.742,0.328-1.559,0.875-2.429,1.617l-0.552,0.479l3.535,4.275
		c0.354,0.42,0.427,0.994,0.218,1.476c-0.077,0.154-0.176,0.309-0.267,0.41l-0.144,0.115c-0.286,0.251-0.655,0.367-1.021,0.322
		c-0.322-0.026-0.597-0.15-0.821-0.352c-0.056-0.05-0.112-0.101-0.147-0.153l-3.316-3.997l-0.581,0.737
		c-1.532,1.976-2.971,4.3-4.255,6.905l-0.348,0.703l3.583,1.575c0.712,0.315,1.047,1.164,0.731,1.877
		c-0.066,0.164-0.166,0.298-0.287,0.432c-0.143,0.136-0.298,0.241-0.496,0.326c-0.357,0.126-0.743,0.125-1.093-0.027l-3.595-1.585
		l-0.282,0.743c-1.045,2.678-1.801,5.372-2.228,7.792l-0.165,0.929l5.22-0.246c0.373-0.031,0.722,0.101,1.015,0.363
		c0.248,0.243,0.449,0.586,0.459,0.981c0.023,0.224-0.02,0.429-0.115,0.648c-0.067,0.143-0.166,0.298-0.277,0.421
		c-0.255,0.238-0.6,0.396-0.952,0.404l-5.582,0.287l0.028,0.737c0.032,1.004,0.164,1.875,0.364,2.602
		c0.105,0.358,0.061,0.746-0.114,1.076c-0.068,0.121-0.159,0.223-0.24,0.312c-0.183,0.181-0.391,0.299-0.622,0.376
		c-0.369,0.094-0.757,0.051-1.077-0.135c-0.342-0.185-0.582-0.483-0.677-0.852c-0.262-0.906-0.417-2-0.46-3.218l-0.02-0.769
		l-8.528,0.422c-0.769,0.041-1.443-0.565-1.485-1.355c-0.031-0.78,0.576-1.454,1.355-1.485l8.86-0.429l0.085-0.615
		c0.422-2.933,1.307-6.202,2.589-9.459l0.263-0.678l-12.131-5.336c-0.341-0.164-0.612-0.449-0.749-0.795
		c-0.147-0.356-0.135-0.731,0.017-1.082C98.058,186.602,98.907,186.268,99.619,186.583z"/>
	<path style="fill:#3B1010;" d="M410.694,283.83l-6.903,7.509l0.399,0.403c1.902,1.895,3.545,3.922,4.735,5.856l0.249,0.421
		l6.397-2.437c0.261-0.106,0.558-0.099,0.83,0.029c0.266,0.118,0.479,0.332,0.575,0.598c0.102,0.277,0.095,0.574-0.023,0.84
		c-0.118,0.266-0.337,0.469-0.608,0.581l-6.146,2.337l0.213,0.548c0.401,1.002,0.638,1.923,0.703,2.754
		c0.029,0.29-0.067,0.571-0.249,0.793c-0.193,0.228-0.452,0.36-0.742,0.389c-0.306,0.025-0.618-0.08-0.842-0.289
		c-0.196-0.183-0.323-0.433-0.346-0.713c-0.055-0.623-0.251-1.353-0.576-2.171l-0.212-0.521l-3.992,1.516
		c-0.394,0.154-0.83,0.065-1.13-0.207c-0.093-0.095-0.182-0.205-0.233-0.296l-0.048-0.133c-0.112-0.271-0.105-0.568,0.019-0.824
		c0.098-0.229,0.257-0.398,0.46-0.511c0.051-0.028,0.102-0.057,0.148-0.069l3.736-1.426l-0.393-0.606
		c-1.06-1.607-2.397-3.232-3.977-4.814l-0.427-0.428l-2.037,2.221c-0.406,0.441-1.108,0.474-1.549,0.068
		c-0.103-0.089-0.176-0.195-0.244-0.317c-0.064-0.138-0.102-0.276-0.115-0.443c-0.003-0.292,0.093-0.572,0.291-0.79l2.047-2.227
		l-0.472-0.389c-1.693-1.426-3.469-2.645-5.127-3.556l-0.636-0.35l-1.115,3.866c-0.07,0.28-0.253,0.502-0.516,0.649
		c-0.239,0.121-0.539,0.182-0.829,0.091c-0.168-0.039-0.308-0.121-0.444-0.245c-0.087-0.085-0.176-0.195-0.239-0.306
		c-0.11-0.245-0.14-0.535-0.058-0.794l1.175-4.14l-0.544-0.162c-0.74-0.225-1.407-0.345-1.987-0.38
		c-0.287-0.013-0.559-0.14-0.756-0.35c-0.072-0.08-0.123-0.171-0.168-0.252c-0.087-0.178-0.121-0.359-0.12-0.547
		c0.023-0.293,0.151-0.565,0.366-0.752c0.219-0.203,0.496-0.305,0.789-0.282c0.726,0.034,1.561,0.192,2.46,0.462l0.566,0.176
		l1.807-6.321c0.161-0.57,0.77-0.911,1.356-0.746c0.576,0.171,0.917,0.78,0.746,1.356l-1.884,6.564l0.427,0.214
		c2.033,1.035,4.196,2.491,6.253,4.233l0.428,0.36l6.897-7.519c0.204-0.208,0.479-0.335,0.765-0.349
		c0.296-0.019,0.566,0.083,0.784,0.281C411.067,282.687,411.1,283.388,410.694,283.83z"/>
	<g>
		<g>
			<path style="fill:#F24842;" d="M310.888,181.313l-15.767-2.334c-0.295-0.044-0.469,0.321-0.249,0.522l17.022,15.62
				L310.888,181.313z"/>
			<path style="fill:#FF5852;" d="M318.579,199.962c8.708,4.277,18.739,2.855,25.839-2.822c2.724-2.166,5.01-4.945,6.64-8.27
				c5.907-12.033,0.941-26.572-11.093-32.479c-10.524-5.174-22.984-2.013-29.887,6.936c-0.985,1.269-1.86,2.658-2.593,4.157
				C301.59,179.516,306.557,194.055,318.579,199.962z"/>
			<path style="fill:#F24842;" d="M318.579,199.962c8.708,4.277,18.739,2.855,25.839-2.822c1.926-1.871,3.577-4.102,4.824-6.651
				c5.864-11.946,0.93-26.386-11.016-32.25c-9.714-4.77-21.091-2.396-28.147,5.087c-0.985,1.269-1.86,2.658-2.593,4.157
				C301.59,179.516,306.557,194.055,318.579,199.962z"/>
			<g>
				<g>
					<path style="fill:#3B1010;" d="M329.307,153.891c2.578,0,5.177,0.414,7.7,1.275c15.128,5.167,21.257,22.981,12.552,36.353
						c-4.189,6.434-13.226,10.79-21.271,10.79c-1.44,0-2.848-0.14-4.191-0.432c-5.019-1.092-9.076-3.577-12.206-6.798l0.003,0.042
						l-17.022-15.62c-0.208-0.19-0.064-0.526,0.201-0.526c0.016,0,0.032,0.001,0.048,0.004l10.02,1.483
						c-0.525-5.496,0.771-11.251,4.332-16.32C314.064,157.609,321.584,153.891,329.307,153.891 M329.307,152.059
						c-8.506,0-16.481,4.123-21.334,11.03c-3.198,4.552-4.83,9.777-4.779,15.233l-7.806-1.156c-0.089-0.013-0.227-0.023-0.316-0.023
						c-0.884,0-1.664,0.535-1.986,1.362c-0.322,0.826-0.107,1.747,0.546,2.346l17.022,15.62c0.055,0.05,0.112,0.097,0.172,0.14
						c3.594,3.605,7.925,5.979,12.88,7.057c1.445,0.314,2.986,0.474,4.581,0.474c8.83,0,18.421-4.888,22.806-11.623
						c4.462-6.854,5.504-15.184,2.857-22.854c-2.647-7.67-8.607-13.587-16.352-16.232
						C334.931,152.521,332.141,152.059,329.307,152.059L329.307,152.059z"/>
				</g>
			</g>
			<g>
				<g>
					<path style="fill:#3B1010;" d="M303.283,180.193c0,0-0.113,2.625,0.867,5.332c0.167,0.46,0.652,0.725,1.126,0.605l0,0
						c0.52-0.132,0.822-0.669,0.669-1.182c-0.65-2.192-0.839-4.492-0.839-4.492L303.283,180.193z"/>
				</g>
			</g>
		</g>
		<g>
			<g>
				<path style="fill:#FFFFFF;" d="M314.659,174.107c0.815-7.053,9.9-9.07,13.447-2.92c0.816,1.415,1.171,2.603,1.171,2.603
					s0.355-1.187,1.171-2.603c3.547-6.15,12.632-4.133,13.447,2.92c0.588,5.087-1.589,12.242-14.618,18.373
					C316.249,186.349,314.071,179.194,314.659,174.107z"/>
			</g>
		</g>
	</g>
	<g>
		<path style="fill:#FFFFFF;" d="M339.026,230.135c0.003,2.378,6.257,2.326,7.816,3.883c1.56,1.555,1.534,7.807,3.908,7.804
			c2.379-0.005,2.329-6.256,3.884-7.816c1.553-1.562,7.807-1.534,7.802-3.909c-0.003-2.377-6.257-2.329-7.817-3.883
			c-1.559-1.555-1.533-7.809-3.907-7.804c-2.378,0.005-2.327,6.258-3.882,7.818C345.273,227.788,339.02,227.758,339.026,230.135z"/>
		<path style="fill:#FFFFFF;" d="M360.588,212.541c0.002,1.56,4.105,1.526,5.127,2.547c1.024,1.02,1.006,5.121,2.563,5.119
			c1.561-0.003,1.527-4.104,2.548-5.127c1.019-1.025,5.122-1.006,5.118-2.564c-0.002-1.56-4.105-1.528-5.128-2.547
			c-1.023-1.02-1.005-5.122-2.563-5.119c-1.56,0.003-1.527,4.105-2.547,5.128C364.685,211.001,360.584,210.981,360.588,212.541z"/>
	</g>
	<g>
		<path style="fill:#FFFFFF;" d="M167.974,290.125c-0.003,2.079-5.471,2.034-6.833,3.395c-1.364,1.359-1.341,6.825-3.416,6.823
			c-2.08-0.004-2.036-5.47-3.396-6.833c-1.358-1.366-6.826-1.341-6.821-3.418c0.003-2.079,5.471-2.036,6.835-3.395
			c1.363-1.359,1.34-6.827,3.415-6.823c2.079,0.004,2.035,5.472,3.394,6.835C162.512,288.073,167.979,288.047,167.974,290.125z"/>
		<path style="fill:#FFFFFF;" d="M149.182,278.34c0,2.245-1.82,4.064-4.064,4.064c-2.245,0-4.064-1.82-4.064-4.064
			c0-2.245,1.82-4.064,4.064-4.064C147.362,274.276,149.182,276.095,149.182,278.34z"/>
	</g>
	<path style="fill:#FFFFFF;" d="M184.189,190.033c0.002,1.267,3.333,1.239,4.164,2.069c0.831,0.828,0.817,4.159,2.082,4.157
		c1.267-0.002,1.24-3.333,2.069-4.164c0.827-0.832,4.159-0.817,4.156-2.082c-0.002-1.267-3.333-1.241-4.164-2.069
		c-0.831-0.828-0.816-4.16-2.081-4.157c-1.267,0.003-1.24,3.334-2.068,4.165C187.517,188.782,184.186,188.766,184.189,190.033z"/>
</g>
</svg>
